  0
SECTION
  2
HEADER
  9
$ACADVER
  1
AC1021
  9
$ACADMAINTVER
 70
     1
  9
$DWGCODEPAGE
  3
ANSI_1252
  9
$INSBASE
 10
0.0
 20
0.0
 30
0.0
  9
$EXTMIN
 10
1.000000000000000E+20
 20
1.000000000000000E+20
 30
1.000000000000000E+20
  9
$EXTMAX
 10
-1.000000000000000E+20
 20
-1.000000000000000E+20
 30
-1.000000000000000E+20
  9
$LIMMIN
 10
0.0
 20
0.0
  9
$LIMMAX
 10
12.0
 20
9.0
  9
$ORTHOMODE
 70
     0
  9
$REGENMODE
 70
     1
  9
$FILLMODE
 70
     1
  9
$QTEXTMODE
 70
     0
  9
$MIRRTEXT
 70
     1
  9
$LTSCALE
 40
1.0
  9
$ATTMODE
 70
     1
  9
$TEXTSIZE
 40
0.2
  9
$TRACEWID
 40
0.05
  9
$TEXTSTYLE
  7
Standard
  9
$CLAYER
  8
0
  9
$CELTYPE
  6
ByLayer
  9
$CECOLOR
 62
   256
  9
$CELTSCALE
 40
1.0
  9
$DISPSILH
 70
     0
  9
$DIMSCALE
 40
1.0
  9
$DIMASZ
 40
0.18
  9
$DIMEXO
 40
0.0625
  9
$DIMDLI
 40
0.38
  9
$DIMRND
 40
0.0
  9
$DIMDLE
 40
0.0
  9
$DIMEXE
 40
0.18
  9
$DIMTP
 40
0.0
  9
$DIMTM
 40
0.0
  9
$DIMTXT
 40
0.18
  9
$DIMCEN
 40
0.09
  9
$DIMTSZ
 40
0.0
  9
$DIMTOL
 70
     0
  9
$DIMLIM
 70
     0
  9
$DIMTIH
 70
     1
  9
$DIMTOH
 70
     1
  9
$DIMSE1
 70
     0
  9
$DIMSE2
 70
     0
  9
$DIMTAD
 70
     0
  9
$DIMZIN
 70
     0
  9
$DIMBLK
  1

  9
$DIMASO
 70
     1
  9
$DIMSHO
 70
     1
  9
$DIMPOST
  1

  9
$DIMAPOST
  1

  9
$DIMALT
 70
     0
  9
$DIMALTD
 70
     2
  9
$DIMALTF
 40
25.4
  9
$DIMLFAC
 40
1.0
  9
$DIMTOFL
 70
     0
  9
$DIMTVP
 40
0.0
  9
$DIMTIX
 70
     0
  9
$DIMSOXD
 70
     0
  9
$DIMSAH
 70
     0
  9
$DIMBLK1
  1

  9
$DIMBLK2
  1

  9
$DIMSTYLE
  2
Standard
  9
$DIMCLRD
 70
     0
  9
$DIMCLRE
 70
     0
  9
$DIMCLRT
 70
     0
  9
$DIMTFAC
 40
1.0
  9
$DIMGAP
 40
0.09
  9
$DIMJUST
 70
     0
  9
$DIMSD1
 70
     0
  9
$DIMSD2
 70
     0
  9
$DIMTOLJ
 70
     1
  9
$DIMTZIN
 70
     0
  9
$DIMALTZ
 70
     0
  9
$DIMALTTZ
 70
     0
  9
$DIMUPT
 70
     0
  9
$DIMDEC
 70
     4
  9
$DIMTDEC
 70
     4
  9
$DIMALTU
 70
     2
  9
$DIMALTTD
 70
     2
  9
$DIMTXSTY
  7
Standard
  9
$DIMAUNIT
 70
     0
  9
$DIMADEC
 70
     0
  9
$DIMALTRND
 40
0.0
  9
$DIMAZIN
 70
     0
  9
$DIMDSEP
 70
    46
  9
$DIMATFIT
 70
     3
  9
$DIMFRAC
 70
     0
  9
$DIMLDRBLK
  1

  9
$DIMLUNIT
 70
     2
  9
$DIMLWD
 70
    -2
  9
$DIMLWE
 70
    -2
  9
$DIMTMOVE
 70
     0
  9
$DIMFXL
 40
1.0
  9
$DIMFXLON
 70
     0
  9
$DIMJOGANG
 40
0.7853981633974483
  9
$DIMTFILL
 70
     0
  9
$DIMTFILLCLR
 70
     0
  9
$DIMARCSYM
 70
     0
  9
$DIMLTYPE
  6

  9
$DIMLTEX1
  6

  9
$DIMLTEX2
  6

  9
$LUNITS
 70
     2
  9
$LUPREC
 70
     4
  9
$SKETCHINC
 40
0.1
  9
$FILLETRAD
 40
0.5
  9
$AUNITS
 70
     0
  9
$AUPREC
 70
     0
  9
$MENU
  1
.
  9
$ELEVATION
 40
0.0
  9
$PELEVATION
 40
0.0
  9
$THICKNESS
 40
0.0
  9
$LIMCHECK
 70
     0
  9
$CHAMFERA
 40
0.5
  9
$CHAMFERB
 40
0.5
  9
$CHAMFERC
 40
1.0
  9
$CHAMFERD
 40
0.0
  9
$SKPOLY
 70
     0
  9
$TDCREATE
 40
2451381.013765729
  9
$TDUCREATE
 40
2451380.805432396
  9
$TDUPDATE
 40
2451381.049513889
  9
$TDUUPDATE
 40
2451380.841180556
  9
$TDINDWG
 40
0.0075603935
  9
$TDUSRTIMER
 40
0.0075513542
  9
$USRTIMER
 70
     1
  9
$ANGBASE
 50
0.0
  9
$ANGDIR
 70
     0
  9
$PDMODE
 70
     0
  9
$PDSIZE
 40
0.0
  9
$PLINEWID
 40
0.0
  9
$SPLFRAME
 70
     0
  9
$SPLINETYPE
 70
     6
  9
$SPLINESEGS
 70
     8
  9
$HANDSEED
  5
12A
  9
$SURFTAB1
 70
     6
  9
$SURFTAB2
 70
     6
  9
$SURFTYPE
 70
     6
  9
$SURFU
 70
     6
  9
$SURFV
 70
     6
  9
$UCSBASE
  2

  9
$UCSNAME
  2

  9
$UCSORG
 10
0.0
 20
0.0
 30
0.0
  9
$UCSXDIR
 10
1.0
 20
0.0
 30
0.0
  9
$UCSYDIR
 10
0.0
 20
1.0
 30
0.0
  9
$UCSORTHOREF
  2

  9
$UCSORTHOVIEW
 70
     0
  9
$UCSORGTOP
 10
0.0
 20
0.0
 30
0.0
  9
$UCSORGBOTTOM
 10
0.0
 20
0.0
 30
0.0
  9
$UCSORGLEFT
 10
0.0
 20
0.0
 30
0.0
  9
$UCSORGRIGHT
 10
0.0
 20
0.0
 30
0.0
  9
$UCSORGFRONT
 10
0.0
 20
0.0
 30
0.0
  9
$UCSORGBACK
 10
0.0
 20
0.0
 30
0.0
  9
$PUCSBASE
  2

  9
$PUCSNAME
  2

  9
$PUCSORG
 10
0.0
 20
0.0
 30
0.0
  9
$PUCSXDIR
 10
1.0
 20
0.0
 30
0.0
  9
$PUCSYDIR
 10
0.0
 20
1.0
 30
0.0
  9
$PUCSORTHOREF
  2

  9
$PUCSORTHOVIEW
 70
     0
  9
$PUCSORGTOP
 10
0.0
 20
0.0
 30
0.0
  9
$PUCSORGBOTTOM
 10
0.0
 20
0.0
 30
0.0
  9
$PUCSORGLEFT
 10
0.0
 20
0.0
 30
0.0
  9
$PUCSORGRIGHT
 10
0.0
 20
0.0
 30
0.0
  9
$PUCSORGFRONT
 10
0.0
 20
0.0
 30
0.0
  9
$PUCSORGBACK
 10
0.0
 20
0.0
 30
0.0
  9
$USERI1
 70
     0
  9
$USERI2
 70
     0
  9
$USERI3
 70
     0
  9
$USERI4
 70
     0
  9
$USERI5
 70
     0
  9
$USERR1
 40
0.0
  9
$USERR2
 40
0.0
  9
$USERR3
 40
0.0
  9
$USERR4
 40
0.0
  9
$USERR5
 40
0.0
  9
$WORLDVIEW
 70
     1
  9
$SHADEDGE
 70
     3
  9
$SHADEDIF
 70
    70
  9
$TILEMODE
 70
     1
  9
$MAXACTVP
 70
    64
  9
$PINSBASE
 10
0.0
 20
0.0
 30
0.0
  9
$PLIMCHECK
 70
     0
  9
$PEXTMIN
 10
1.000000000000000E+20
 20
1.000000000000000E+20
 30
1.000000000000000E+20
  9
$PEXTMAX
 10
-1.000000000000000E+20
 20
-1.000000000000000E+20
 30
-1.000000000000000E+20
  9
$PLIMMIN
 10
0.0
 20
0.0
  9
$PLIMMAX
 10
12.0
 20
9.0
  9
$UNITMODE
 70
     0
  9
$VISRETAIN
 70
     1
  9
$PLINEGEN
 70
     0
  9
$PSLTSCALE
 70
     1
  9
$TREEDEPTH
 70
  3020
  9
$CMLSTYLE
  2
Standard
  9
$CMLJUST
 70
     0
  9
$CMLSCALE
 40
1.0
  9
$PROXYGRAPHICS
 70
     1
  9
$MEASUREMENT
 70
     0
  9
$CELWEIGHT
370
    -1
  9
$ENDCAPS
280
     0
  9
$JOINSTYLE
280
     0
  9
$LWDISPLAY
290
     0
  9
$INSUNITS
 70
     1
  9
$HYPERLINKBASE
  1

  9
$STYLESHEET
  1

  9
$XEDIT
290
     1
  9
$CEPSNTYPE
380
     0
  9
$PSTYLEMODE
290
     1
  9
$FINGERPRINTGUID
  2
{12F50282-3ED8-11D3-A8B7-0060B0F84BC6}
  9
$VERSIONGUID
  2
{12F50293-3ED8-11D3-A8B7-0060B0F84BC6}
  9
$EXTNAMES
290
     1
  9
$PSVPSCALE
 40
0.0
  9
$OLESTARTUP
290
     0
  9
$SORTENTS
280
   127
  9
$INDEXCTL
280
     0
  9
$HIDETEXT
280
     0
  9
$XCLIPFRAME
290
     0
  9
$HALOGAP
280
     0
  9
$OBSCOLOR
 70
   257
  9
$OBSLTYPE
280
     0
  9
$INTERSECTIONDISPLAY
280
     0
  9
$INTERSECTIONCOLOR
 70
   257
  9
$DIMASSOC
280
     1
  9
$PROJECTNAME
  1

  9
$CAMERADISPLAY
290
     0
  9
$LENSLENGTH
 40
50.0
  9
$CAMERAHEIGHT
 40
0.0
  9
$STEPSPERSEC
 40
2.0
  9
$STEPSIZE
 40
6.0
  9
$3DDWFPREC
 40
2.0
  9
$PSOLWIDTH
 40
0.25
  9
$PSOLHEIGHT
 40
4.0
  9
$LOFTANG1
 40
1.570796326794896
  9
$LOFTANG2
 40
1.570796326794896
  9
$LOFTMAG1
 40
0.0
  9
$LOFTMAG2
 40
0.0
  9
$LOFTPARAM
 70
     7
  9
$LOFTNORMALS
280
     1
  9
$LATITUDE
 40
37.795
  9
$LONGITUDE
 40
-122.394
  9
$NORTHDIRECTION
 40
0.0
  9
$TIMEZONE
 70
 -8000
  9
$LIGHTGLYPHDISPLAY
280
     1
  9
$TILEMODELIGHTSYNCH
280
     1
  9
$CMATERIAL
347
AB
  9
$SOLIDHIST
280
     1
  9
$SHOWHIST
280
     1
  9
$DWFFRAME
280
     2
  9
$DGNFRAME
280
     0
  9
$REALWORLDSCALE
290
     1
  9
$INTERFERECOLOR
 62
     1
  9
$INTERFEREOBJVS
345
B8
  9
$INTERFEREVPVS
346
B5
  9
$CSHADOW
280
     0
  9
$SHADOWPLANELOCATION
 40
0.0
  0
ENDSEC
  0
SECTION
  2
CLASSES
  0
CLASS
  1
ACDBDICTIONARYWDFLT
  2
AcDbDictionaryWithDefault
  3
ObjectDBX Classes
 90
        0
 91
        0
280
     0
281
     0
  0
CLASS
  1
ACDBPLACEHOLDER
  2
AcDbPlaceHolder
  3
ObjectDBX Classes
 90
        0
 91
        0
280
     0
281
     0
  0
CLASS
  1
LAYOUT
  2
AcDbLayout
  3
ObjectDBX Classes
 90
        0
 91
        3
280
     0
281
     0
  0
CLASS
  1
MATERIAL
  2
AcDbMaterial
  3
ObjectDBX Classes
 90
     1024
 91
        3
280
     0
281
     0
  0
CLASS
  1
VISUALSTYLE
  2
AcDbVisualStyle
  3
ObjectDBX Classes
 90
     4095
 91
       16
280
     0
281
     0
  0
CLASS
  1
TABLESTYLE
  2
AcDbTableStyle
  3
ObjectDBX Classes
 90
     4095
 91
        1
280
     0
281
     0
  0
CLASS
  1
DICTIONARYVAR
  2
AcDbDictionaryVar
  3
ObjectDBX Classes
 90
        0
 91
        1
280
     0
281
     0
  0
ENDSEC
  0
SECTION
  2
TABLES
  0
TABLE
  2
VPORT
  5
8
330
0
100
AcDbSymbolTable
 70
     1
  0
VPORT
  5
A8
330
8
100
AcDbSymbolTableRecord
100
AcDbViewportTableRecord
  2
*Active
 70
     0
 10
0.0
 20
0.0
 11
1.0
 21
1.0
 12
360.6944580078125
 22
-300.952392578125
 13
0.0
 23
0.0
 14
0.5
 24
0.5
 15
0.5
 25
0.5
 16
-1.0
 26
-1.0
 36
1.0
 17
0.0
 27
0.0
 37
0.0
 40
2838.545928896343
 41
1.382656784627839
 42
50.0
 43
0.0
 44
0.0
 50
0.0
 51
0.0
 71
     0
 72
   100
 73
     1
 74
     3
 75
     0
 76
     0
 77
     0
 78
     0
281
     0
 65
     1
110
0.0
120
0.0
130
0.0
111
1.0
121
0.0
131
0.0
112
0.0
122
1.0
132
0.0
 79
     0
146
0.0
348
B4
 60
     3
 61
     5
292
     1
282
     1
141
0.0
142
0.0
 63
   250
421
  3355443
  0
ENDTAB
  0
TABLE
  2
LTYPE
  5
5
330
0
100
AcDbSymbolTable
 70
     1
  0
LTYPE
  5
14
330
5
100
AcDbSymbolTableRecord
100
AcDbLinetypeTableRecord
  2
ByBlock
 70
     0
  3

 72
    65
 73
     0
 40
0.0
  0
LTYPE
  5
15
330
5
100
AcDbSymbolTableRecord
100
AcDbLinetypeTableRecord
  2
ByLayer
 70
     0
  3

 72
    65
 73
     0
 40
0.0
  0
LTYPE
  5
16
330
5
100
AcDbSymbolTableRecord
100
AcDbLinetypeTableRecord
  2
Continuous
 70
     0
  3
Solid line
 72
    65
 73
     0
 40
0.0
  0
ENDTAB
  0
TABLE
  2
LAYER
  5
2
330
0
100
AcDbSymbolTable
 70
     2
  0
LAYER
  5
10
330
2
100
AcDbSymbolTableRecord
100
AcDbLayerTableRecord
  2
0
 70
     0
 62
   173
420
  5789921
  6
Continuous
370
    -3
390
F
347
AD
  0
LAYER
  5
2B
330
2
100
AcDbSymbolTableRecord
100
AcDbLayerTableRecord
  2
ASHADE
 70
     4
 62
     7
  6
Continuous
370
    -3
390
2D
347
AD
  0
ENDTAB
  0
TABLE
  2
STYLE
  5
3
330
0
100
AcDbSymbolTable
 70
     2
  0
STYLE
  5
11
330
3
100
AcDbSymbolTableRecord
100
AcDbTextStyleTableRecord
  2
Standard
 70
     0
 40
0.0
 41
1.0
 50
0.0
 71
     0
 42
0.2
  3
txt
  4

  0
STYLE
  5
2C
330
3
100
AcDbSymbolTableRecord
100
AcDbTextStyleTableRecord
  2
ASHADE
 70
     0
 40
0.2
 41
1.0
 50
0.0
 71
     0
 42
0.2
  3
simplex
  4

  0
ENDTAB
  0
TABLE
  2
VIEW
  5
6
330
0
100
AcDbSymbolTable
 70
     0
  0
ENDTAB
  0
TABLE
  2
UCS
  5
7
330
0
100
AcDbSymbolTable
 70
     0
  0
ENDTAB
  0
TABLE
  2
APPID
  5
9
330
0
100
AcDbSymbolTable
 70
     6
  0
APPID
  5
12
330
9
100
AcDbSymbolTableRecord
100
AcDbRegAppTableRecord
  2
ACAD
 70
     0
  0
APPID
  5
8F
330
9
100
AcDbSymbolTableRecord
100
AcDbRegAppTableRecord
  2
AVE_RENDER
 70
     0
  0
APPID
  5
90
330
9
100
AcDbSymbolTableRecord
100
AcDbRegAppTableRecord
  2
AVE_ENTITY_MATERIAL
 70
     0
  0
APPID
  5
9C
330
9
100
AcDbSymbolTableRecord
100
AcDbRegAppTableRecord
  2
AVE_FINISH
 70
     0
  0
APPID
  5
9D
330
9
100
AcDbSymbolTableRecord
100
AcDbRegAppTableRecord
  2
AVE_MATERIAL
 70
     0
  0
APPID
  5
9E
330
9
100
AcDbSymbolTableRecord
100
AcDbRegAppTableRecord
  2
AVE_GLOBAL
 70
     0
  0
ENDTAB
  0
TABLE
  2
DIMSTYLE
  5
A
330
0
100
AcDbSymbolTable
 70
     1
100
AcDbDimStyleTable
 71
     0
  0
DIMSTYLE
105
27
330
A
100
AcDbSymbolTableRecord
100
AcDbDimStyleTableRecord
  2
Standard
 70
     0
340
11
  0
ENDTAB
  0
TABLE
  2
BLOCK_RECORD
  5
1
330
0
100
AcDbSymbolTable
 70
     6
  0
BLOCK_RECORD
  5
1F
330
1
100
AcDbSymbolTableRecord
100
AcDbBlockTableRecord
  2
*Model_Space
340
22
 70
     0
280
     1
281
     0
  0
BLOCK_RECORD
  5
1B
330
1
100
AcDbSymbolTableRecord
100
AcDbBlockTableRecord
  2
*Paper_Space
340
1E
 70
     0
280
     1
281
     0
  0
BLOCK_RECORD
  5
23
330
1
100
AcDbSymbolTableRecord
100
AcDbBlockTableRecord
  2
*Paper_Space0
340
26
 70
     0
280
     1
281
     0
  0
BLOCK_RECORD
  5
2E
330
1
100
AcDbSymbolTableRecord
100
AcDbBlockTableRecord
  2
direct
340
0
 70
     0
280
     1
281
     0
  0
BLOCK_RECORD
  5
42
330
1
100
AcDbSymbolTableRecord
100
AcDbBlockTableRecord
  2
overhead
340
0
 70
     0
280
     1
281
     0
  0
BLOCK_RECORD
  5
5F
330
1
100
AcDbSymbolTableRecord
100
AcDbBlockTableRecord
  2
sh_spot
340
0
 70
     0
280
     1
281
     0
  0
BLOCK_RECORD
  5
91
330
1
100
AcDbSymbolTableRecord
100
AcDbBlockTableRecord
  2
AVE_RENDER
340
0
102
{BLKREFS
331
94
331
95
331
96
331
97
331
98
331
99
331
9A
331
9B
102
}
 70
     0
280
     1
281
     0
  0
BLOCK_RECORD
  5
9F
330
1
100
AcDbSymbolTableRecord
100
AcDbBlockTableRecord
  2
AVE_GLOBAL
340
0
102
{BLKREFS
331
A2
102
}
 70
     0
280
     1
281
     0
  0
ENDTAB
  0
ENDSEC
  0
SECTION
  2
BLOCKS
  0
BLOCK
  5
20
330
1F
100
AcDbEntity
  8
0
100
AcDbBlockBegin
  2
*Model_Space
 70
     0
 10
0.0
 20
0.0
 30
0.0
  3
*Model_Space
  1

  0
ENDBLK
  5
21
330
1F
100
AcDbEntity
  8
0
100
AcDbBlockEnd
  0
BLOCK
  5
1C
330
1B
100
AcDbEntity
 67
     1
  8
0
100
AcDbBlockBegin
  2
*Paper_Space
 70
     0
 10
0.0
 20
0.0
 30
0.0
  3
*Paper_Space
  1

  0
ENDBLK
  5
1D
330
1B
100
AcDbEntity
 67
     1
  8
0
100
AcDbBlockEnd
  0
BLOCK
  5
24
330
23
100
AcDbEntity
 67
     1
  8
0
100
AcDbBlockBegin
  2
*Paper_Space0
 70
     0
 10
0.0
 20
0.0
 30
0.0
  3
*Paper_Space0
  1

  0
ENDBLK
  5
25
330
23
100
AcDbEntity
 67
     1
  8
0
100
AcDbBlockEnd
  0
BLOCK
  5
40
330
2E
100
AcDbEntity
  8
0
100
AcDbBlockBegin
  2
direct
 70
     2
 10
0.0
 20
0.0
 30
0.0
  3
direct
  1

  0
ATTDEF
  5
2F
330
2E
100
AcDbEntity
  8
ASHADE
  6
Continuous
 62
     1
100
AcDbText
 10
0.0
 20
-0.1
 30
0.0
 40
0.2
  1

  7
ASHADE
 72
     1
 11
0.0
 21
-0.1
 31
0.0
100
AcDbAttributeDefinition
  3
Light Name
  2
SNAME
 70
     0
280
     0
  0
ARC
  5
30
330
2E
100
AcDbEntity
  8
ASHADE
  6
Continuous
 62
     7
100
AcDbCircle
 10
0.0
 20
0.0
 30
0.0
 40
0.3
100
AcDbArc
 50
205.6792886194569
 51
334.3207113805431
  0
ARC
  5
31
330
2E
100
AcDbEntity
  8
ASHADE
  6
Continuous
 62
     7
100
AcDbCircle
 10
0.0
 20
0.0
 30
0.0
 40
0.3
100
AcDbArc
 50
25.67928861945685
 51
154.3207113805431
  0
LINE
  5
32
330
2E
100
AcDbEntity
  8
ASHADE
  6
Continuous
 62
     7
100
AcDbLine
 10
-0.21
 20
0.2142428528562855
 30
0.0
 11
-0.21
 21
0.5
 31
0.0
  0
LINE
  5
33
330
2E
100
AcDbEntity
  8
ASHADE
  6
Continuous
 62
     7
100
AcDbLine
 10
-0.11
 20
0.2791057147390572
 30
0.0
 11
-0.11
 21
0.5
 31
0.0
  0
LINE
  5
34
330
2E
100
AcDbEntity
  8
ASHADE
  6
Continuous
 62
     7
100
AcDbLine
 10
0.21
 20
0.2142428528562855
 30
0.0
 11
0.21
 21
0.5
 31
0.0
  0
ATTDEF
  5
35
330
2E
100
AcDbEntity
  8
ASHADE
  6
Continuous
 62
     7
100
AcDbText
 10
0.0
 20
0.25
 30
0.0
 40
0.01
  1

100
AcDbAttributeDefinition
  3
Look-at Y
  2
LAY
 70
     1
280
     0
  0
ATTDEF
  5
36
330
2E
100
AcDbEntity
  8
ASHADE
  6
Continuous
 62
     7
100
AcDbText
 10
0.0
 20
0.22
 30
0.0
 40
0.01
  1
1
100
AcDbAttributeDefinition
  3
Light Intensity
  2
INTENSITY
 70
     1
280
     0
  0
ATTDEF
  5
37
330
2E
100
AcDbEntity
  8
ASHADE
  6
Continuous
 62
     7
100
AcDbText
 10
0.0
 20
0.16
 30
0.0
 40
0.01
  1
-1
100
AcDbAttributeDefinition
  3
*not used*
  2
BEAMD
 70
     1
280
     0
  0
ATTDEF
  5
38
330
2E
100
AcDbEntity
  8
ASHADE
  6
Continuous
 62
     7
100
AcDbText
 10
0.0
 20
0.175
 30
0.0
 40
0.01
  1
-1
100
AcDbAttributeDefinition
  3
*not used*
  2
CONED
 70
     1
280
     0
  0
ATTDEF
  5
39
330
2E
100
AcDbEntity
  8
ASHADE
  6
Continuous
 62
     7
100
AcDbText
 10
0.0
 20
0.19
 30
0.0
 40
0.01
  1
0
100
AcDbAttributeDefinition
  3
Depth Map Size
  2
CONEA
 70
     1
280
     0
  0
ATTDEF
  5
3A
330
2E
100
AcDbEntity
  8
ASHADE
  6
Continuous
 62
     7
100
AcDbText
 10
0.0
 20
0.2050000000000001
 30
0.0
 40
0.01
  1
1,1,1
100
AcDbAttributeDefinition
  3
Light Color (RGB)
  2
COLOR
 70
     1
280
     0
  0
ATTDEF
  5
3B
330
2E
100
AcDbEntity
  8
ASHADE
  6
Continuous
 62
     7
100
AcDbText
 10
0.0
 20
0.235
 30
0.0
 40
0.01
  1

100
AcDbAttributeDefinition
  3
Look-at Z
  2
LAZ
 70
     1
280
     0
  0
LINE
  5
3C
330
2E
100
AcDbEntity
  8
ASHADE
  6
Continuous
 62
     7
100
AcDbLine
 10
0.0
 20
0.3
 30
0.0
 11
0.0
 21
0.5
 31
0.0
  0
LINE
  5
3D
330
2E
100
AcDbEntity
  8
ASHADE
  6
Continuous
 62
     7
100
AcDbLine
 10
0.11
 20
0.2791057147390572
 30
0.0
 11
0.11
 21
0.5
 31
0.0
  0
ATTDEF
  5
3E
330
2E
100
AcDbEntity
  8
ASHADE
  6
Continuous
 62
     7
100
AcDbText
 10
0.0
 20
0.265
 30
0.0
 40
0.01
  1

100
AcDbAttributeDefinition
  3
Look-at X
  2
LAX
 70
     1
280
     0
  0
ATTDEF
  5
3F
330
2E
100
AcDbEntity
  8
ASHADE
  6
Continuous
 62
     7
100
AcDbText
 10
0.0
 20
0.28
 30
0.0
 40
0.01
  1

100
AcDbAttributeDefinition
  3

  2
GNAME
 70
     1
280
     0
  0
ENDBLK
  5
41
330
2E
100
AcDbEntity
  8
0
100
AcDbBlockEnd
  0
BLOCK
  5
5D
330
42
100
AcDbEntity
  8
0
100
AcDbBlockBegin
  2
overhead
 70
     2
 10
0.0
 20
0.0
 30
0.0
  3
overhead
  1

  0
ATTDEF
  5
43
330
42
100
AcDbEntity
  8
ASHADE
  6
Continuous
 62
     1
100
AcDbText
 10
0.0
 20
-0.1
 30
0.0
 40
0.2
  1

  7
ASHADE
 72
     1
 11
0.0
 21
-0.1
 31
0.0
100
AcDbAttributeDefinition
  3
Light Name
  2
SNAME
 70
     0
280
     0
  0
ARC
  5
44
330
42
100
AcDbEntity
  8
ASHADE
  6
Continuous
 62
     7
100
AcDbCircle
 10
0.0
 20
0.0
 30
0.0
 40
0.3
100
AcDbArc
 50
205.6792886194569
 51
334.3207113805431
  0
LINE
  5
45
330
42
100
AcDbEntity
  8
ASHADE
  6
Continuous
 62
     7
100
AcDbLine
 10
-0.2041413561583015
 20
-0.2198324514393848
 30
0.0
 11
-0.2721884748777353
 21
-0.2931099352525131
 31
0.0
  0
LINE
  5
46
330
42
100
AcDbEntity
  8
ASHADE
  6
Continuous
 62
     7
100
AcDbLine
 10
-0.1096591641591904
 20
-0.2792398032442862
 30
0.0
 11
-0.1279356915190555
 21
-0.3257797704516673
 31
0.0
  0
LINE
  5
47
330
42
100
AcDbEntity
  8
ASHADE
  6
Continuous
 62
     7
100
AcDbLine
 10
0.0
 20
-0.2999999999999999
 30
0.0
 11
0.0
 21
-0.4
 31
0.0
  0
LINE
  5
48
330
42
100
AcDbEntity
  8
ASHADE
  6
Continuous
 62
     7
100
AcDbLine
 10
0.1096591641591904
 20
-0.2792398032442862
 30
0.0
 11
0.1279356915190555
 21
-0.3257797704516673
 31
0.0
  0
LINE
  5
49
330
42
100
AcDbEntity
  8
ASHADE
  6
Continuous
 62
     7
100
AcDbLine
 10
0.2041413561583015
 20
-0.2198324514393848
 30
0.0
 11
0.2721884748777353
 21
-0.2931099352525131
 31
0.0
  0
ARC
  5
4A
330
42
100
AcDbEntity
  8
ASHADE
  6
Continuous
 62
     7
100
AcDbCircle
 10
0.0
 20
0.0
 30
0.0
 40
0.3
100
AcDbArc
 50
25.67928861945685
 51
154.3207113805431
  0
LINE
  5
4B
330
42
100
AcDbEntity
  8
ASHADE
  6
Continuous
 62
     7
100
AcDbLine
 10
-0.2703701166919155
 20
0.13
 30
0.0
 11
-0.3154318028072347
 21
0.1516666666666666
 31
0.0
  0
LINE
  5
4C
330
42
100
AcDbEntity
  8
ASHADE
  6
Continuous
 62
     7
100
AcDbLine
 10
-0.2703701166919155
 20
-0.13
 30
0.0
 11
-0.3154318028072347
 21
-0.1516666666666666
 31
0.0
  0
LINE
  5
4D
330
42
100
AcDbEntity
  8
ASHADE
  6
Continuous
 62
     7
100
AcDbLine
 10
-0.2041413561583015
 20
0.2198324514393849
 30
0.0
 11
-0.2721884748777353
 21
0.2931099352525131
 31
0.0
  0
LINE
  5
4E
330
42
100
AcDbEntity
  8
ASHADE
  6
Continuous
 62
     7
100
AcDbLine
 10
-0.1096591641591904
 20
0.2792398032442862
 30
0.0
 11
-0.1279356915190555
 21
0.3257797704516674
 31
0.0
  0
LINE
  5
4F
330
42
100
AcDbEntity
  8
ASHADE
  6
Continuous
 62
     7
100
AcDbLine
 10
0.2703701166919155
 20
-0.13
 30
0.0
 11
0.3154318028072347
 21
-0.1516666666666666
 31
0.0
  0
LINE
  5
50
330
42
100
AcDbEntity
  8
ASHADE
  6
Continuous
 62
     7
100
AcDbLine
 10
0.2703701166919155
 20
0.13
 30
0.0
 11
0.3154318028072347
 21
0.1516666666666666
 31
0.0
  0
LINE
  5
51
330
42
100
AcDbEntity
  8
ASHADE
  6
Continuous
 62
     7
100
AcDbLine
 10
0.0
 20
0.3
 30
0.0
 11
0.0
 21
0.4
 31
0.0
  0
ATTDEF
  5
52
330
42
100
AcDbEntity
  8
ASHADE
  6
Continuous
 62
     7
100
AcDbText
 10
0.0
 20
0.22
 30
0.0
 40
0.01
  1
1
100
AcDbAttributeDefinition
  3
Light Intensity
  2
INTENSITY
 70
     1
280
     0
  0
ATTDEF
  5
53
330
42
100
AcDbEntity
  8
ASHADE
  6
Continuous
 62
     7
100
AcDbText
 10
0.0
 20
0.16
 30
0.0
 40
0.01
  1
-1
100
AcDbAttributeDefinition
  3
*not used*
  2
BEAMD
 70
     1
280
     0
  0
ATTDEF
  5
54
330
42
100
AcDbEntity
  8
ASHADE
  6
Continuous
 62
     7
100
AcDbText
 10
0.0
 20
0.175
 30
0.0
 40
0.01
  1
-1
100
AcDbAttributeDefinition
  3
*not used*
  2
CONED
 70
     1
280
     0
  0
ATTDEF
  5
55
330
42
100
AcDbEntity
  8
ASHADE
  6
Continuous
 62
     7
100
AcDbText
 10
0.0
 20
0.19
 30
0.0
 40
0.01
  1
0
100
AcDbAttributeDefinition
  3
Depth Map Size
  2
CONEA
 70
     1
280
     0
  0
ATTDEF
  5
56
330
42
100
AcDbEntity
  8
ASHADE
  6
Continuous
 62
     7
100
AcDbText
 10
0.0
 20
0.2050000000000001
 30
0.0
 40
0.01
  1
1,1,1
100
AcDbAttributeDefinition
  3
Light Color (RGB)
  2
COLOR
 70
     1
280
     0
  0
ATTDEF
  5
57
330
42
100
AcDbEntity
  8
ASHADE
  6
Continuous
 62
     7
100
AcDbText
 10
0.0
 20
0.235
 30
0.0
 40
0.01
  1

100
AcDbAttributeDefinition
  3
Look-at Z
  2
LAZ
 70
     1
280
     0
  0
ATTDEF
  5
58
330
42
100
AcDbEntity
  8
ASHADE
  6
Continuous
 62
     7
100
AcDbText
 10
0.0
 20
0.25
 30
0.0
 40
0.01
  1

100
AcDbAttributeDefinition
  3
Look-at Y
  2
LAY
 70
     1
280
     0
  0
ATTDEF
  5
59
330
42
100
AcDbEntity
  8
ASHADE
  6
Continuous
 62
     7
100
AcDbText
 10
0.0
 20
0.265
 30
0.0
 40
0.01
  1

100
AcDbAttributeDefinition
  3
Look-at X
  2
LAX
 70
     1
280
     0
  0
ATTDEF
  5
5A
330
42
100
AcDbEntity
  8
ASHADE
  6
Continuous
 62
     7
100
AcDbText
 10
0.0
 20
0.28
 30
0.0
 40
0.01
  1

100
AcDbAttributeDefinition
  3

  2
GNAME
 70
     1
280
     0
  0
LINE
  5
5B
330
42
100
AcDbEntity
  8
ASHADE
  6
Continuous
 62
     7
100
AcDbLine
 10
0.1096591641591904
 20
0.2792398032442862
 30
0.0
 11
0.1279356915190555
 21
0.3257797704516674
 31
0.0
  0
LINE
  5
5C
330
42
100
AcDbEntity
  8
ASHADE
  6
Continuous
 62
     7
100
AcDbLine
 10
0.2041413561583015
 20
0.2198324514393849
 30
0.0
 11
0.2721884748777353
 21
0.2931099352525131
 31
0.0
  0
ENDBLK
  5
5E
330
42
100
AcDbEntity
  8
0
100
AcDbBlockEnd
  0
BLOCK
  5
85
330
5F
100
AcDbEntity
  8
0
100
AcDbBlockBegin
  2
sh_spot
 70
     2
 10
0.0
 20
0.0
 30
0.0
  3
sh_spot
  1

  0
LINE
  5
60
330
5F
100
AcDbEntity
  8
ASHADE
  6
Continuous
 62
     7
100
AcDbLine
 10
0.25
 20
0.26
 30
0.0
 11
-0.25
 21
0.26
 31
0.0
  0
LINE
  5
61
330
5F
100
AcDbEntity
  8
ASHADE
  6
Continuous
 62
     7
100
AcDbLine
 10
-0.25
 20
-0.3399999999999999
 30
0.0
 11
0.25
 21
-0.3399999999999999
 31
0.0
  0
ATTDEF
  5
62
330
5F
100
AcDbEntity
  8
ASHADE
  6
Continuous
 62
     1
100
AcDbText
 10
0.0
 20
-0.1
 30
0.0
 40
0.2
  1

  7
ASHADE
 72
     1
 11
0.0
 21
-0.1
 31
0.0
100
AcDbAttributeDefinition
  3
Light Name
  2
SNAME
 70
     0
280
     0
  0
LINE
  5
63
330
5F
100
AcDbEntity
  8
ASHADE
  6
Continuous
 62
     7
100
AcDbLine
 10
-0.25
 20
-0.13
 30
0.0
 11
-0.25
 21
-0.3399999999999999
 31
0.0
  0
LINE
  5
64
330
5F
100
AcDbEntity
  8
ASHADE
  6
Continuous
 62
     7
100
AcDbLine
 10
-0.25
 20
-0.18
 30
0.0
 11
-0.29
 21
-0.18
 31
0.0
  0
LINE
  5
65
330
5F
100
AcDbEntity
  8
ASHADE
  6
Continuous
 62
     7
100
AcDbLine
 10
-0.29
 20
-0.22
 30
0.0
 11
-0.25
 21
-0.22
 31
0.0
  0
LINE
  5
66
330
5F
100
AcDbEntity
  8
ASHADE
  6
Continuous
 62
     7
100
AcDbLine
 10
-0.29
 20
-0.18
 30
0.0
 11
-0.29
 21
-0.22
 31
0.0
  0
LINE
  5
67
330
5F
100
AcDbEntity
  8
ASHADE
  6
Continuous
 62
     7
100
AcDbLine
 10
-0.1045454545454545
 20
0.26
 30
0.0
 11
-0.15
 21
0.46
 31
0.0
  0
LINE
  5
68
330
5F
100
AcDbEntity
  8
ASHADE
  6
Continuous
 62
     7
100
AcDbLine
 10
-0.21
 20
0.26
 30
0.0
 11
-0.301304347826087
 21
0.46
 31
0.0
  0
LINE
  5
69
330
5F
100
AcDbEntity
  8
ASHADE
  6
Continuous
 62
     7
100
AcDbLine
 10
-0.25
 20
0.26
 30
0.0
 11
-0.25
 21
0.13
 31
0.0
  0
LINE
  5
6A
330
5F
100
AcDbEntity
  8
ASHADE
  6
Continuous
 62
     7
100
AcDbLine
 10
-0.25
 20
0.22
 30
0.0
 11
-0.29
 21
0.22
 31
0.0
  0
LINE
  5
6B
330
5F
100
AcDbEntity
  8
ASHADE
  6
Continuous
 62
     7
100
AcDbLine
 10
-0.29
 20
0.1799999999999999
 30
0.0
 11
-0.25
 21
0.1799999999999999
 31
0.0
  0
LINE
  5
6C
330
5F
100
AcDbEntity
  8
ASHADE
  6
Continuous
 62
     7
100
AcDbLine
 10
-0.29
 20
0.22
 30
0.0
 11
-0.29
 21
0.1799999999999999
 31
0.0
  0
ATTDEF
  5
6D
330
5F
100
AcDbEntity
  8
ASHADE
  6
Continuous
 62
     7
100
AcDbText
 10
0.0
 20
-0.24
 30
0.0
 40
0.01
  1
0
100
AcDbAttributeDefinition
  3
Depth Map Size
  2
ZSIZE
 70
     1
280
     0
  0
ATTDEF
  5
6E
330
5F
100
AcDbEntity
  8
ASHADE
  6
Continuous
 62
     7
100
AcDbText
 10
0.0
 20
-0.3300000000000001
 30
0.0
 40
0.01
  1
0,0,0
100
AcDbAttributeDefinition
  3
Look-from XYZ
  2
LFXYZ
 70
     1
280
     0
  0
ATTDEF
  5
6F
330
5F
100
AcDbEntity
  8
ASHADE
  6
Continuous
 62
     7
100
AcDbText
 10
0.0
 20
-0.315
 30
0.0
 40
0.01
  1
0.0
100
AcDbAttributeDefinition
  3
Beam Distribution
  2
BEAMDI
 70
     1
280
     0
  0
ATTDEF
  5
70
330
5F
100
AcDbEntity
  8
ASHADE
  6
Continuous
 62
     7
100
AcDbText
 10
0.0
 20
-0.3
 30
0.0
 40
0.01
  1
0.0
100
AcDbAttributeDefinition
  3
Cone Delta
  2
CONEDE
 70
     1
280
     0
  0
ATTDEF
  5
71
330
5F
100
AcDbEntity
  8
ASHADE
  6
Continuous
 62
     7
100
AcDbText
 10
0.0
 20
-0.2850000000000001
 30
0.0
 40
0.01
  1
10.0
100
AcDbAttributeDefinition
  3
Cone Angle
  2
CONEAN
 70
     1
280
     0
  0
ATTDEF
  5
72
330
5F
100
AcDbEntity
  8
ASHADE
  6
Continuous
 62
     7
100
AcDbText
 10
0.0
 20
-0.27
 30
0.0
 40
0.01
  1
-1
100
AcDbAttributeDefinition
  3
*not used*
  2
BIASMAX
 70
     1
280
     0
  0
ATTDEF
  5
73
330
5F
100
AcDbEntity
  8
ASHADE
  6
Continuous
 62
     7
100
AcDbText
 10
0.0
 20
-0.255
 30
0.0
 40
0.01
  1
-1
100
AcDbAttributeDefinition
  3
*not used*
  2
BIASMIN
 70
     1
280
     0
  0
ATTDEF
  5
74
330
5F
100
AcDbEntity
  8
ASHADE
  6
Continuous
 62
     7
100
AcDbText
 10
0.0
 20
-0.225
 30
0.0
 40
0.01
  1
1,1,1
100
AcDbAttributeDefinition
  3
Light Color (RGB)
  2
COLOR
 70
     1
280
     0
  0
ATTDEF
  5
75
330
5F
100
AcDbEntity
  8
ASHADE
  6
Continuous
 62
     7
100
AcDbText
 10
0.0
 20
-0.21
 30
0.0
 40
0.01
  1
1
100
AcDbAttributeDefinition
  3
Light Intensity
  2
INTENSITY
 70
     1
280
     0
  0
ATTDEF
  5
76
330
5F
100
AcDbEntity
  8
ASHADE
  6
Continuous
 62
     7
100
AcDbText
 10
0.0
 20
-0.15
 30
0.0
 40
0.01
  1

100
AcDbAttributeDefinition
  3

  2
GNAME
 70
     1
280
     0
  0
ATTDEF
  5
77
330
5F
100
AcDbEntity
  8
ASHADE
  6
Continuous
 62
     7
100
AcDbText
 10
0.0
 20
-0.195
 30
0.0
 40
0.01
  1

100
AcDbAttributeDefinition
  3
Look-at Z
  2
LAZ
 70
     1
280
     0
  0
ATTDEF
  5
78
330
5F
100
AcDbEntity
  8
ASHADE
  6
Continuous
 62
     7
100
AcDbText
 10
0.0
 20
-0.18
 30
0.0
 40
0.01
  1

100
AcDbAttributeDefinition
  3
Look-at Y
  2
LAY
 70
     1
280
     0
  0
ATTDEF
  5
79
330
5F
100
AcDbEntity
  8
ASHADE
  6
Continuous
 62
     7
100
AcDbText
 10
0.0
 20
-0.165
 30
0.0
 40
0.01
  1

100
AcDbAttributeDefinition
  3
Look-at X
  2
LAX
 70
     1
280
     0
  0
LINE
  5
7A
330
5F
100
AcDbEntity
  8
ASHADE
  6
Continuous
 62
     7
100
AcDbLine
 10
0.25
 20
-0.3399999999999999
 30
0.0
 11
0.25
 21
-0.13
 31
0.0
  0
LINE
  5
7B
330
5F
100
AcDbEntity
  8
ASHADE
  6
Continuous
 62
     7
100
AcDbLine
 10
0.25
 20
-0.18
 30
0.0
 11
0.29
 21
-0.18
 31
0.0
  0
LINE
  5
7C
330
5F
100
AcDbEntity
  8
ASHADE
  6
Continuous
 62
     7
100
AcDbLine
 10
0.29
 20
-0.22
 30
0.0
 11
0.25
 21
-0.22
 31
0.0
  0
LINE
  5
7D
330
5F
100
AcDbEntity
  8
ASHADE
  6
Continuous
 62
     7
100
AcDbLine
 10
0.29
 20
-0.18
 30
0.0
 11
0.29
 21
-0.22
 31
0.0
  0
LINE
  5
7E
330
5F
100
AcDbEntity
  8
ASHADE
  6
Continuous
 62
     7
100
AcDbLine
 10
0.21
 20
0.26
 30
0.0
 11
0.301304347826087
 21
0.46
 31
0.0
  0
LINE
  5
7F
330
5F
100
AcDbEntity
  8
ASHADE
  6
Continuous
 62
     7
100
AcDbLine
 10
0.1045454545454545
 20
0.26
 30
0.0
 11
0.15
 21
0.46
 31
0.0
  0
LINE
  5
80
330
5F
100
AcDbEntity
  8
ASHADE
  6
Continuous
 62
     7
100
AcDbLine
 10
0.0
 20
0.26
 30
0.0
 11
0.0
 21
0.46
 31
0.0
  0
LINE
  5
81
330
5F
100
AcDbEntity
  8
ASHADE
  6
Continuous
 62
     7
100
AcDbLine
 10
0.25
 20
0.13
 30
0.0
 11
0.25
 21
0.26
 31
0.0
  0
LINE
  5
82
330
5F
100
AcDbEntity
  8
ASHADE
  6
Continuous
 62
     7
100
AcDbLine
 10
0.25
 20
0.22
 30
0.0
 11
0.29
 21
0.22
 31
0.0
  0
LINE
  5
83
330
5F
100
AcDbEntity
  8
ASHADE
  6
Continuous
 62
     7
100
AcDbLine
 10
0.29
 20
0.1799999999999999
 30
0.0
 11
0.25
 21
0.1799999999999999
 31
0.0
  0
LINE
  5
84
330
5F
100
AcDbEntity
  8
ASHADE
  6
Continuous
 62
     7
100
AcDbLine
 10
0.29
 20
0.22
 30
0.0
 11
0.29
 21
0.1799999999999999
 31
0.0
  0
ENDBLK
  5
86
330
5F
100
AcDbEntity
  8
0
100
AcDbBlockEnd
  0
BLOCK
  5
92
330
91
100
AcDbEntity
  8
ASHADE
100
AcDbBlockBegin
  2
AVE_RENDER
 70
     0
 10
0.0
 20
0.0
 30
0.0
  3
AVE_RENDER
  1
AVE_RENDER
  0
ENDBLK
  5
93
330
91
100
AcDbEntity
  8
0
100
AcDbBlockEnd
  0
BLOCK
  5
A0
330
9F
100
AcDbEntity
  8
ASHADE
100
AcDbBlockBegin
  2
AVE_GLOBAL
 70
     0
 10
0.0
 20
0.0
 30
0.0
  3
AVE_GLOBAL
  1
AVE_GLOBAL
  0
ENDBLK
  5
A1
330
9F
100
AcDbEntity
  8
0
100
AcDbBlockEnd
  0
ENDSEC
  0
SECTION
  2
ENTITIES
  0
INSERT
  5
94
330
1F
100
AcDbEntity
  8
ASHADE
 62
     1
100
AcDbBlockReference
  2
AVE_RENDER
 10
0.0
 20
0.0
 30
0.0
1001
AVE_RENDER
1002
{
1070
     7
1000
Pref
1070
    30
1070
    20
1070
     1
1070
     0
1000

1070
    10
1070
     1
1070
    10
1040
1.0
1070
     1
1040
0.3
1040
0.7
1040
0.0
1040
10.0
1010
-1.0
1020
-1.0
1030
-1.0
1040
0.3
1070
    49
1070
     0
1070
     0
1010
1.0
1020
1.0
1030
1.0
1040
45.0
1070
     1
1070
     0
1000
WCS
1040
0.0
1070
     0
1040
10.0
1002
}
  0
INSERT
  5
95
330
1F
100
AcDbEntity
  8
ASHADE
 62
     3
100
AcDbBlockReference
  2
AVE_RENDER
 10
0.0
 20
0.0
 30
0.0
1001
AVE_RENDER
1002
{
1070
     0
1000
Full Opt
1070
     0
1070
     1
1070
     1
1070
     1
1070
     0
1070
     0
1070
     0
1070
     1
1070
     1
1040
0.0001
1040
0.0001
1002
}
  0
INSERT
  5
96
330
1F
100
AcDbEntity
  8
ASHADE
 62
     4
100
AcDbBlockReference
  2
AVE_RENDER
 10
0.0
 20
0.0
 30
0.0
1001
AVE_RENDER
1002
{
1070
     0
1000
Quick Opt
1070
     0
1070
     1
1070
     1
1070
     1
1070
     0
1070
     0
1070
     1
1002
}
  0
INSERT
  5
97
330
1F
100
AcDbEntity
  8
ASHADE
 62
     5
100
AcDbBlockReference
  2
AVE_RENDER
 10
0.0
 20
0.0
 30
0.0
1001
AVE_RENDER
1002
{
1070
     1
1000
Scanl Opt
1070
     2
1070
     0
1070
     2
1040
2.0
1040
4.0
1070
     0
1070
     1
1070
     0
1040
0.03
1002
}
  0
INSERT
  5
98
330
1F
100
AcDbEntity
  8
ASHADE
 62
     6
100
AcDbBlockReference
  2
AVE_RENDER
 10
0.0
 20
0.0
 30
0.0
1001
AVE_RENDER
1002
{
1070
     2
1000
Raytr Opt
1070
     2
1070
     0
1070
     2
1040
2.0
1040
4.0
1070
     0
1070
     1
1070
     1
1040
0.03
1070
     3
1040
0.03
1002
}
  0
INSERT
  5
99
330
1F
100
AcDbEntity
  8
ASHADE
 62
     7
100
AcDbBlockReference
  2
AVE_RENDER
 10
0.0
 20
0.0
 30
0.0
1001
AVE_RENDER
1002
{
1070
     0
1000
RFile Opt
1070
     1
1070
   640
1070
   480
1070
 10000
1070
     1
1070
     8
1070
     8
1070
     0
1070
     0
1070
     0
1070
     0
1070
     0
1070
     0
1070
     0
1002
}
  0
INSERT
  5
9A
330
1F
100
AcDbEntity
  8
ASHADE
 62
     8
100
AcDbBlockReference
  2
AVE_RENDER
 10
0.0
 20
0.0
 30
0.0
1001
AVE_RENDER
1002
{
1070
     0
1000
Fog Opt
1070
     0
1070
     0
1040
0.0
1040
1.0
1040
0.0
1040
1.0
1010
0.5
1020
0.5
1030
0.5
1002
}
  0
INSERT
  5
9B
330
1F
100
AcDbEntity
  8
ASHADE
 62
     9
100
AcDbBlockReference
  2
AVE_RENDER
 10
0.0
 20
0.0
 30
0.0
1001
AVE_RENDER
1002
{
1070
     0
1000
BG Opt
1070
     0
1070
     1
1010
0.0
1020
0.0
1030
0.0
1010
1.0
1020
0.0
1030
0.0
1010
0.0
1020
1.0
1030
0.0
1010
0.0
1020
0.0
1030
1.0
1040
0.5
1040
0.33
1040
0.0
1000

1070
     1
1000

1070
     1
1070
     1
1040
1.0
1040
1.0
1040
0.0
1040
0.0
1070
     0
1002
}
  0
INSERT
  5
A2
330
1F
100
AcDbEntity
  8
ASHADE
 62
     1
100
AcDbBlockReference
  2
AVE_GLOBAL
 10
0.0
 20
0.0
 30
0.0
1001
AVE_MATERIAL
1002
{
1000
*GLOBAL*
1000
2
1000
Global finish.
1002
{
1002
}
1002
{
1070
    63
1002
{
1002
{
1010
-1.0
1020
-1.0
1030
-1.0
1002
}
1040
0.1000000014901161
1000

1040
0.0
1002
{
1002
}
1040
0.0
1002
{
1002
}
1040
0.0
1002
}
1002
{
1002
{
1010
-1.0
1020
-1.0
1030
-1.0
1002
}
1040
0.6999999880790711
1000

1040
0.0
1002
{
1002
}
1040
0.0
1002
{
1002
}
1040
0.0
1002
}
1002
{
1002
{
1010
-1.0
1020
-1.0
1030
-1.0
1002
}
1040
0.2000000029802322
1000

1040
0.0
1002
{
1002
}
1040
0.0
1002
{
1002
}
1040
0.0
1002
}
1002
{
1070
     0
1002
{
1070
     1
1002
{
1040
1.0
1040
1.0
1000

1040
0.0
1002
{
1002
}
1040
0.0
1002
{
1002
}
1040
0.0
1002
}
1002
}
1040
1.0
1040
0.0
1040
0.0
1002
}
1002
{
1040
1.0
1040
1.0
1000

1040
0.0
1002
{
1002
}
1040
0.0
1002
{
1002
}
1040
0.0
1002
}
1002
{
1040
0.5
1040
1.0
1000

1040
0.0
1002
{
1002
}
1040
0.0
1002
{
1002
}
1040
0.0
1002
}
1002
{
1070
     0
1040
0.0
1002
{
1002
}
1040
1.0
1002
{
1002
}
1040
0.0
1002
}
1002
{
1040
0.0
1002
{
1002
{
1010
0.0
1020
0.0
1030
0.0
1002
}
1040
1.0
1000

1040
0.0
1002
{
1002
}
1040
0.0
1002
{
1002
}
1040
0.0
1002
}
1002
}
1002
{
1002
{
1070
     1
1002
{
1040
0.0
1040
1.0
1000

1040
0.0
1002
{
1002
}
1040
0.0
1002
{
1002
}
1040
0.0
1002
}
1002
}
1040
0.0
1002
{
1002
}
1010
1.0
1020
0.0
1030
0.0
1010
0.0
1020
1.0
1030
0.0
1010
0.0
1020
0.0
1030
1.0
1070
     0
1002
}
1002
{
1002
{
1040
1.0
1040
1.0
1002
{
1070
     1
1002
{
1040
1.0
1040
1.0
1000

1040
0.0
1002
{
1002
}
1040
0.0
1002
{
1002
}
1040
0.0
1002
}
1002
}
1002
}
1070
     0
1040
0.0
1002
{
1002
}
1002
}
1002
{
1002
}
1002
}
1002
{
1071
        3
1070
     3
1070
     0
1002
{
1070
     2
1070
     0
1070
     0
1040
0.0
1002
}
1070
     0
1070
     2
1002
{
1002
}
1002
}
1002
{
1040
8030.0
1040
190.3000030517578
1040
0.3050000071525574
1040
228.0
1040
545.0
1040
14.0
1040
17.39999961853027
1040
0.4560000002384186
1002
}
1002
}
  0
POLYLINE
  5
C2
330
1F
100
AcDbEntity
  8
0
 62
   183
420
  9197793
100
AcDbPolyFaceMesh
 66
     1
 10
0.0
 20
0.0
 30
0.0
 70
    64
 71
    36
 72
    64
  0
VERTEX
  5
C3
330
C2
100
AcDbEntity
  8
0
 62
   183
420
  9197793
100
AcDbVertex
100
AcDbPolyFaceMeshVertex
 10
-433.187255859375
 20
384.95947265625
 30
532.8864746093749
 70
   192
  0
VERTEX
  5
C4
330
C2
100
AcDbEntity
  8
0
 62
   183
420
  9197793
100
AcDbVertex
100
AcDbPolyFaceMeshVertex
 10
547.4390258789062
 20
-173.629638671875
 30
463.6741027832031
 70
   192
  0
VERTEX
  5
C5
330
C2
100
AcDbEntity
  8
0
 62
   183
420
  9197793
100
AcDbVertex
100
AcDbPolyFaceMeshVertex
 10
547.4390258789062
 20
-173.629638671875
 30
63.48179626464844
 70
   192
  0
VERTEX
  5
C6
330
C2
100
AcDbEntity
  8
0
 62
   183
420
  9197793
100
AcDbVertex
100
AcDbPolyFaceMeshVertex
 10
-433.187255859375
 20
384.95947265625
 30
63.48179626464844
 70
   192
  0
VERTEX
  5
C7
330
C2
100
AcDbEntity
  8
0
 62
   183
420
  9197793
100
AcDbVertex
100
AcDbPolyFaceMeshVertex
 10
-621.2589111328124
 20
54.7919921875
 30
532.8864746093749
 70
   192
  0
VERTEX
  5
C8
330
C2
100
AcDbEntity
  8
0
 62
   183
420
  9197793
100
AcDbVertex
100
AcDbPolyFaceMeshVertex
 10
359.3673706054687
 20
-503.7971191406249
 30
532.8864746093749
 70
   192
  0
VERTEX
  5
C9
330
C2
100
AcDbEntity
  8
0
 62
   183
420
  9197793
100
AcDbVertex
100
AcDbPolyFaceMeshVertex
 10
359.3673706054687
 20
-503.7971191406249
 30
63.48178100585937
 70
   192
  0
VERTEX
  5
CA
330
C2
100
AcDbEntity
  8
0
 62
   183
420
  9197793
100
AcDbVertex
100
AcDbPolyFaceMeshVertex
 10
-621.2589111328124
 20
54.7919921875
 30
63.48178100585937
 70
   192
  0
VERTEX
  5
CB
330
C2
100
AcDbEntity
  8
0
 62
   183
420
  9197793
100
AcDbVertex
100
AcDbPolyFaceMeshVertex
 10
-166.410400390625
 20
294.6669921875
 30
584.4837646484375
 70
   192
  0
VERTEX
  5
CC
330
C2
100
AcDbEntity
  8
0
 62
   183
420
  9197793
100
AcDbVertex
100
AcDbPolyFaceMeshVertex
 10
-166.410400390625
 20
294.6669921875
 30
11.884521484375
 70
   192
  0
VERTEX
  5
CD
330
C2
100
AcDbEntity
  8
0
 62
   183
420
  9197793
100
AcDbVertex
100
AcDbPolyFaceMeshVertex
 10
333.7078857421875
 20
9.787109375
 30
584.4837646484375
 70
   192
  0
VERTEX
  5
CE
330
C2
100
AcDbEntity
  8
0
 62
   183
420
  9197793
100
AcDbVertex
100
AcDbPolyFaceMeshVertex
 10
333.7078857421875
 20
9.787109375
 30
11.884521484375
 70
   192
  0
VERTEX
  5
CF
330
C2
100
AcDbEntity
  8
0
 62
   183
420
  9197793
100
AcDbVertex
100
AcDbPolyFaceMeshVertex
 10
-407.5279541015625
 20
-128.624755859375
 30
584.4837646484375
 70
   192
  0
VERTEX
  5
D0
330
C2
100
AcDbEntity
  8
0
 62
   183
420
  9197793
100
AcDbVertex
100
AcDbPolyFaceMeshVertex
 10
92.59033203125
 20
-413.504638671875
 30
584.4837646484375
 70
   192
  0
VERTEX
  5
D1
330
C2
100
AcDbEntity
  8
0
 62
   183
420
  9197793
100
AcDbVertex
100
AcDbPolyFaceMeshVertex
 10
-407.5279541015625
 20
-128.624755859375
 30
11.884521484375
 70
   192
  0
VERTEX
  5
D2
330
C2
100
AcDbEntity
  8
0
 62
   183
420
  9197793
100
AcDbVertex
100
AcDbPolyFaceMeshVertex
 10
92.59033203125
 20
-413.504638671875
 30
11.884521484375
 70
   192
  0
VERTEX
  5
D3
330
C2
100
AcDbEntity
  8
0
 62
   183
420
  9197793
100
AcDbVertex
100
AcDbPolyFaceMeshVertex
 10
-116.3162841796875
 20
-182.68505859375
 30
455.2429809570312
 70
   192
  0
VERTEX
  5
D4
330
C2
100
AcDbEntity
  8
0
 62
   183
420
  9197793
100
AcDbVertex
100
AcDbPolyFaceMeshVertex
 10
-197.8916015625
 20
-136.2177734375
 30
424.7389526367187
 70
   192
  0
VERTEX
  5
D5
330
C2
100
AcDbEntity
  8
0
 62
   183
420
  9197793
100
AcDbVertex
100
AcDbPolyFaceMeshVertex
 10
-248.307861328125
 20
-107.499267578125
 30
344.8785400390625
 70
   192
  0
VERTEX
  5
D6
330
C2
100
AcDbEntity
  8
0
 62
   183
420
  9197793
100
AcDbVertex
100
AcDbPolyFaceMeshVertex
 10
-248.307861328125
 20
-107.499267578125
 30
246.1657104492187
 70
   192
  0
VERTEX
  5
D7
330
C2
100
AcDbEntity
  8
0
 62
   183
420
  9197793
100
AcDbVertex
100
AcDbPolyFaceMeshVertex
 10
-197.8916015625
 20
-136.2177734375
 30
166.3052978515625
 70
   192
  0
VERTEX
  5
D8
330
C2
100
AcDbEntity
  8
0
 62
   183
420
  9197793
100
AcDbVertex
100
AcDbPolyFaceMeshVertex
 10
-116.3162841796875
 20
-182.68505859375
 30
135.8012542724609
 70
   192
  0
VERTEX
  5
D9
330
C2
100
AcDbEntity
  8
0
 62
   183
420
  9197793
100
AcDbVertex
100
AcDbPolyFaceMeshVertex
 10
-34.740966796875
 20
-229.15234375
 30
166.3052978515625
 70
   192
  0
VERTEX
  5
DA
330
C2
100
AcDbEntity
  8
0
 62
   183
420
  9197793
100
AcDbVertex
100
AcDbPolyFaceMeshVertex
 10
15.6754150390625
 20
-257.870849609375
 30
246.1657104492187
 70
   192
  0
VERTEX
  5
DB
330
C2
100
AcDbEntity
  8
0
 62
   183
420
  9197793
100
AcDbVertex
100
AcDbPolyFaceMeshVertex
 10
15.6754150390625
 20
-257.870849609375
 30
344.8785400390625
 70
   192
  0
VERTEX
  5
DC
330
C2
100
AcDbEntity
  8
0
 62
   183
420
  9197793
100
AcDbVertex
100
AcDbPolyFaceMeshVertex
 10
-34.740966796875
 20
-229.15234375
 30
424.7389526367187
 70
   192
  0
VERTEX
  5
DD
330
C2
100
AcDbEntity
  8
0
 62
   183
420
  9197793
100
AcDbVertex
100
AcDbPolyFaceMeshVertex
 10
-1238.896484375
 20
-2153.420654296875
 30
455.2428588867187
 70
   192
  0
VERTEX
  5
DE
330
C2
100
AcDbEntity
  8
0
 62
   183
420
  9197793
100
AcDbVertex
100
AcDbPolyFaceMeshVertex
 10
-1320.471923828125
 20
-2106.953369140625
 30
424.7388305664062
 70
   192
  0
VERTEX
  5
DF
330
C2
100
AcDbEntity
  8
0
 62
   183
420
  9197793
100
AcDbVertex
100
AcDbPolyFaceMeshVertex
 10
-1370.88818359375
 20
-2078.235107421875
 30
344.87841796875
 70
   192
  0
VERTEX
  5
E0
330
C2
100
AcDbEntity
  8
0
 62
   183
420
  9197793
100
AcDbVertex
100
AcDbPolyFaceMeshVertex
 10
-1370.88818359375
 20
-2078.235107421875
 30
246.1656188964844
 70
   192
  0
VERTEX
  5
E1
330
C2
100
AcDbEntity
  8
0
 62
   183
420
  9197793
100
AcDbVertex
100
AcDbPolyFaceMeshVertex
 10
-1320.471923828125
 20
-2106.953369140625
 30
166.305191040039
 70
   192
  0
VERTEX
  5
E2
330
C2
100
AcDbEntity
  8
0
 62
   183
420
  9197793
100
AcDbVertex
100
AcDbPolyFaceMeshVertex
 10
-1238.896484375
 20
-2153.420654296875
 30
135.8011627197265
 70
   192
  0
VERTEX
  5
E3
330
C2
100
AcDbEntity
  8
0
 62
   183
420
  9197793
100
AcDbVertex
100
AcDbPolyFaceMeshVertex
 10
-1157.3212890625
 20
-2199.887939453125
 30
166.305191040039
 70
   192
  0
VERTEX
  5
E4
330
C2
100
AcDbEntity
  8
0
 62
   183
420
  9197793
100
AcDbVertex
100
AcDbPolyFaceMeshVertex
 10
-1106.90478515625
 20
-2228.606689453125
 30
246.1656188964844
 70
   192
  0
VERTEX
  5
E5
330
C2
100
AcDbEntity
  8
0
 62
   183
420
  9197793
100
AcDbVertex
100
AcDbPolyFaceMeshVertex
 10
-1106.90478515625
 20
-2228.606689453125
 30
344.87841796875
 70
   192
  0
VERTEX
  5
E6
330
C2
100
AcDbEntity
  8
0
 62
   183
420
  9197793
100
AcDbVertex
100
AcDbPolyFaceMeshVertex
 10
-1157.3212890625
 20
-2199.887939453125
 30
424.7388305664062
 70
   192
  0
VERTEX
  5
E7
330
C2
100
AcDbEntity
  8
0
 62
   183
420
  9197793
100
AcDbFaceRecord
 10
0.0
 20
0.0
 30
0.0
 70
   128
 71
     3
 72
     2
 73
    -6
 74
    -3
  0
VERTEX
  5
E8
330
C2
100
AcDbEntity
  8
0
 62
   183
420
  9197793
100
AcDbFaceRecord
 10
0.0
 20
0.0
 30
0.0
 70
   128
 71
     6
 72
     7
 73
    -3
 74
    -6
  0
VERTEX
  5
E9
330
C2
100
AcDbEntity
  8
0
 62
   183
420
  9197793
100
AcDbFaceRecord
 10
0.0
 20
0.0
 30
0.0
 70
   128
 71
     1
 72
     4
 73
    -8
 74
    -1
  0
VERTEX
  5
EA
330
C2
100
AcDbEntity
  8
0
 62
   183
420
  9197793
100
AcDbFaceRecord
 10
0.0
 20
0.0
 30
0.0
 70
   128
 71
     8
 72
     5
 73
    -1
 74
    -8
  0
VERTEX
  5
EB
330
C2
100
AcDbEntity
  8
0
 62
   183
420
  9197793
100
AcDbFaceRecord
 10
0.0
 20
0.0
 30
0.0
 70
   128
 71
    10
 72
     4
 73
    -1
 74
   -10
  0
VERTEX
  5
EC
330
C2
100
AcDbEntity
  8
0
 62
   183
420
  9197793
100
AcDbFaceRecord
 10
0.0
 20
0.0
 30
0.0
 70
   128
 71
     1
 72
     9
 73
   -10
 74
    -1
  0
VERTEX
  5
ED
330
C2
100
AcDbEntity
  8
0
 62
   183
420
  9197793
100
AcDbFaceRecord
 10
0.0
 20
0.0
 30
0.0
 70
   128
 71
    12
 72
    10
 73
    -9
 74
   -12
  0
VERTEX
  5
EE
330
C2
100
AcDbEntity
  8
0
 62
   183
420
  9197793
100
AcDbFaceRecord
 10
0.0
 20
0.0
 30
0.0
 70
   128
 71
     9
 72
    11
 73
   -12
 74
    -9
  0
VERTEX
  5
EF
330
C2
100
AcDbEntity
  8
0
 62
   183
420
  9197793
100
AcDbFaceRecord
 10
0.0
 20
0.0
 30
0.0
 70
   128
 71
     3
 72
    12
 73
   -11
 74
    -3
  0
VERTEX
  5
F0
330
C2
100
AcDbEntity
  8
0
 62
   183
420
  9197793
100
AcDbFaceRecord
 10
0.0
 20
0.0
 30
0.0
 70
   128
 71
    11
 72
     2
 73
    -3
 74
   -11
  0
VERTEX
  5
F1
330
C2
100
AcDbEntity
  8
0
 62
   183
420
  9197793
100
AcDbFaceRecord
 10
0.0
 20
0.0
 30
0.0
 70
   128
 71
     9
 72
     1
 73
    -5
 74
    -9
  0
VERTEX
  5
F2
330
C2
100
AcDbEntity
  8
0
 62
   183
420
  9197793
100
AcDbFaceRecord
 10
0.0
 20
0.0
 30
0.0
 70
   128
 71
     5
 72
    13
 73
    -9
 74
    -5
  0
VERTEX
  5
F3
330
C2
100
AcDbEntity
  8
0
 62
   183
420
  9197793
100
AcDbFaceRecord
 10
0.0
 20
0.0
 30
0.0
 70
   128
 71
    11
 72
     9
 73
   -13
 74
   -11
  0
VERTEX
  5
F4
330
C2
100
AcDbEntity
  8
0
 62
   183
420
  9197793
100
AcDbFaceRecord
 10
0.0
 20
0.0
 30
0.0
 70
   128
 71
    13
 72
    14
 73
   -11
 74
   -13
  0
VERTEX
  5
F5
330
C2
100
AcDbEntity
  8
0
 62
   183
420
  9197793
100
AcDbFaceRecord
 10
0.0
 20
0.0
 30
0.0
 70
   128
 71
     2
 72
    11
 73
   -14
 74
    -2
  0
VERTEX
  5
F6
330
C2
100
AcDbEntity
  8
0
 62
   183
420
  9197793
100
AcDbFaceRecord
 10
0.0
 20
0.0
 30
0.0
 70
   128
 71
    14
 72
     6
 73
    -2
 74
   -14
  0
VERTEX
  5
F7
330
C2
100
AcDbEntity
  8
0
 62
   183
420
  9197793
100
AcDbFaceRecord
 10
0.0
 20
0.0
 30
0.0
 70
   128
 71
    15
 72
     8
 73
    -4
 74
   -15
  0
VERTEX
  5
F8
330
C2
100
AcDbEntity
  8
0
 62
   183
420
  9197793
100
AcDbFaceRecord
 10
0.0
 20
0.0
 30
0.0
 70
   128
 71
     4
 72
    10
 73
   -15
 74
    -4
  0
VERTEX
  5
F9
330
C2
100
AcDbEntity
  8
0
 62
   183
420
  9197793
100
AcDbFaceRecord
 10
0.0
 20
0.0
 30
0.0
 70
   128
 71
    16
 72
    15
 73
   -10
 74
   -16
  0
VERTEX
  5
FA
330
C2
100
AcDbEntity
  8
0
 62
   183
420
  9197793
100
AcDbFaceRecord
 10
0.0
 20
0.0
 30
0.0
 70
   128
 71
    10
 72
    12
 73
   -16
 74
   -10
  0
VERTEX
  5
FB
330
C2
100
AcDbEntity
  8
0
 62
   183
420
  9197793
100
AcDbFaceRecord
 10
0.0
 20
0.0
 30
0.0
 70
   128
 71
     7
 72
    16
 73
   -12
 74
    -7
  0
VERTEX
  5
FC
330
C2
100
AcDbEntity
  8
0
 62
   183
420
  9197793
100
AcDbFaceRecord
 10
0.0
 20
0.0
 30
0.0
 70
   128
 71
    12
 72
     3
 73
    -7
 74
   -12
  0
VERTEX
  5
FD
330
C2
100
AcDbEntity
  8
0
 62
   183
420
  9197793
100
AcDbFaceRecord
 10
0.0
 20
0.0
 30
0.0
 70
   128
 71
    13
 72
     5
 73
    -8
 74
   -13
  0
VERTEX
  5
FE
330
C2
100
AcDbEntity
  8
0
 62
   183
420
  9197793
100
AcDbFaceRecord
 10
0.0
 20
0.0
 30
0.0
 70
   128
 71
     8
 72
    15
 73
   -13
 74
    -8
  0
VERTEX
  5
FF
330
C2
100
AcDbEntity
  8
0
 62
   183
420
  9197793
100
AcDbFaceRecord
 10
0.0
 20
0.0
 30
0.0
 70
   128
 71
    14
 72
    13
 73
   -15
 74
   -14
  0
VERTEX
  5
100
330
C2
100
AcDbEntity
  8
0
 62
   183
420
  9197793
100
AcDbFaceRecord
 10
0.0
 20
0.0
 30
0.0
 70
   128
 71
    15
 72
    16
 73
   -14
 74
   -15
  0
VERTEX
  5
101
330
C2
100
AcDbEntity
  8
0
 62
   183
420
  9197793
100
AcDbFaceRecord
 10
0.0
 20
0.0
 30
0.0
 70
   128
 71
     6
 72
    14
 73
   -16
 74
    -6
  0
VERTEX
  5
102
330
C2
100
AcDbEntity
  8
0
 62
   183
420
  9197793
100
AcDbFaceRecord
 10
0.0
 20
0.0
 30
0.0
 70
   128
 71
    16
 72
     7
 73
    -6
 74
   -16
  0
VERTEX
  5
103
330
C2
100
AcDbEntity
  8
0
 62
   183
420
  9197793
100
AcDbFaceRecord
 10
0.0
 20
0.0
 30
0.0
 70
   128
 71
    17
 72
    26
 73
   -25
 74
   -17
  0
VERTEX
  5
104
330
C2
100
AcDbEntity
  8
0
 62
   183
420
  9197793
100
AcDbFaceRecord
 10
0.0
 20
0.0
 30
0.0
 70
   128
 71
   -17
 72
    25
 73
   -24
 74
   -17
  0
VERTEX
  5
105
330
C2
100
AcDbEntity
  8
0
 62
   183
420
  9197793
100
AcDbFaceRecord
 10
0.0
 20
0.0
 30
0.0
 70
   128
 71
   -17
 72
    24
 73
   -23
 74
   -17
  0
VERTEX
  5
106
330
C2
100
AcDbEntity
  8
0
 62
   183
420
  9197793
100
AcDbFaceRecord
 10
0.0
 20
0.0
 30
0.0
 70
   128
 71
   -17
 72
    23
 73
   -22
 74
   -17
  0
VERTEX
  5
107
330
C2
100
AcDbEntity
  8
0
 62
   183
420
  9197793
100
AcDbFaceRecord
 10
0.0
 20
0.0
 30
0.0
 70
   128
 71
   -17
 72
    22
 73
   -21
 74
   -17
  0
VERTEX
  5
108
330
C2
100
AcDbEntity
  8
0
 62
   183
420
  9197793
100
AcDbFaceRecord
 10
0.0
 20
0.0
 30
0.0
 70
   128
 71
   -17
 72
    21
 73
   -20
 74
   -17
  0
VERTEX
  5
109
330
C2
100
AcDbEntity
  8
0
 62
   183
420
  9197793
100
AcDbFaceRecord
 10
0.0
 20
0.0
 30
0.0
 70
   128
 71
   -17
 72
    20
 73
   -19
 74
   -17
  0
VERTEX
  5
10A
330
C2
100
AcDbEntity
  8
0
 62
   183
420
  9197793
100
AcDbFaceRecord
 10
0.0
 20
0.0
 30
0.0
 70
   128
 71
   -17
 72
    19
 73
    18
 74
   -17
  0
VERTEX
  5
10B
330
C2
100
AcDbEntity
  8
0
 62
   183
420
  9197793
100
AcDbFaceRecord
 10
0.0
 20
0.0
 30
0.0
 70
   128
 71
    18
 72
    28
 73
   -27
 74
   -18
  0
VERTEX
  5
10C
330
C2
100
AcDbEntity
  8
0
 62
   183
420
  9197793
100
AcDbFaceRecord
 10
0.0
 20
0.0
 30
0.0
 70
   128
 71
    27
 72
    17
 73
   -18
 74
   -27
  0
VERTEX
  5
10D
330
C2
100
AcDbEntity
  8
0
 62
   183
420
  9197793
100
AcDbFaceRecord
 10
0.0
 20
0.0
 30
0.0
 70
   128
 71
    19
 72
    29
 73
   -28
 74
   -19
  0
VERTEX
  5
10E
330
C2
100
AcDbEntity
  8
0
 62
   183
420
  9197793
100
AcDbFaceRecord
 10
0.0
 20
0.0
 30
0.0
 70
   128
 71
    28
 72
    18
 73
   -19
 74
   -28
  0
VERTEX
  5
10F
330
C2
100
AcDbEntity
  8
0
 62
   183
420
  9197793
100
AcDbFaceRecord
 10
0.0
 20
0.0
 30
0.0
 70
   128
 71
    20
 72
    30
 73
   -29
 74
   -20
  0
VERTEX
  5
110
330
C2
100
AcDbEntity
  8
0
 62
   183
420
  9197793
100
AcDbFaceRecord
 10
0.0
 20
0.0
 30
0.0
 70
   128
 71
    29
 72
    19
 73
   -20
 74
   -29
  0
VERTEX
  5
111
330
C2
100
AcDbEntity
  8
0
 62
   183
420
  9197793
100
AcDbFaceRecord
 10
0.0
 20
0.0
 30
0.0
 70
   128
 71
    21
 72
    31
 73
   -30
 74
   -21
  0
VERTEX
  5
112
330
C2
100
AcDbEntity
  8
0
 62
   183
420
  9197793
100
AcDbFaceRecord
 10
0.0
 20
0.0
 30
0.0
 70
   128
 71
    30
 72
    20
 73
   -21
 74
   -30
  0
VERTEX
  5
113
330
C2
100
AcDbEntity
  8
0
 62
   183
420
  9197793
100
AcDbFaceRecord
 10
0.0
 20
0.0
 30
0.0
 70
   128
 71
    22
 72
    32
 73
   -31
 74
   -22
  0
VERTEX
  5
114
330
C2
100
AcDbEntity
  8
0
 62
   183
420
  9197793
100
AcDbFaceRecord
 10
0.0
 20
0.0
 30
0.0
 70
   128
 71
    31
 72
    21
 73
   -22
 74
   -31
  0
VERTEX
  5
115
330
C2
100
AcDbEntity
  8
0
 62
   183
420
  9197793
100
AcDbFaceRecord
 10
0.0
 20
0.0
 30
0.0
 70
   128
 71
    23
 72
    33
 73
   -32
 74
   -23
  0
VERTEX
  5
116
330
C2
100
AcDbEntity
  8
0
 62
   183
420
  9197793
100
AcDbFaceRecord
 10
0.0
 20
0.0
 30
0.0
 70
   128
 71
    32
 72
    22
 73
   -23
 74
   -32
  0
VERTEX
  5
117
330
C2
100
AcDbEntity
  8
0
 62
   183
420
  9197793
100
AcDbFaceRecord
 10
0.0
 20
0.0
 30
0.0
 70
   128
 71
    24
 72
    34
 73
   -33
 74
   -24
  0
VERTEX
  5
118
330
C2
100
AcDbEntity
  8
0
 62
   183
420
  9197793
100
AcDbFaceRecord
 10
0.0
 20
0.0
 30
0.0
 70
   128
 71
    33
 72
    23
 73
   -24
 74
   -33
  0
VERTEX
  5
119
330
C2
100
AcDbEntity
  8
0
 62
   183
420
  9197793
100
AcDbFaceRecord
 10
0.0
 20
0.0
 30
0.0
 70
   128
 71
    25
 72
    35
 73
   -34
 74
   -25
  0
VERTEX
  5
11A
330
C2
100
AcDbEntity
  8
0
 62
   183
420
  9197793
100
AcDbFaceRecord
 10
0.0
 20
0.0
 30
0.0
 70
   128
 71
    34
 72
    24
 73
   -25
 74
   -34
  0
VERTEX
  5
11B
330
C2
100
AcDbEntity
  8
0
 62
   183
420
  9197793
100
AcDbFaceRecord
 10
0.0
 20
0.0
 30
0.0
 70
   128
 71
    26
 72
    36
 73
   -35
 74
   -26
  0
VERTEX
  5
11C
330
C2
100
AcDbEntity
  8
0
 62
   183
420
  9197793
100
AcDbFaceRecord
 10
0.0
 20
0.0
 30
0.0
 70
   128
 71
    35
 72
    25
 73
   -26
 74
   -35
  0
VERTEX
  5
11D
330
C2
100
AcDbEntity
  8
0
 62
   183
420
  9197793
100
AcDbFaceRecord
 10
0.0
 20
0.0
 30
0.0
 70
   128
 71
    17
 72
    27
 73
   -36
 74
   -17
  0
VERTEX
  5
11E
330
C2
100
AcDbEntity
  8
0
 62
   183
420
  9197793
100
AcDbFaceRecord
 10
0.0
 20
0.0
 30
0.0
 70
   128
 71
    36
 72
    26
 73
   -17
 74
   -36
  0
VERTEX
  5
11F
330
C2
100
AcDbEntity
  8
0
 62
   183
420
  9197793
100
AcDbFaceRecord
 10
0.0
 20
0.0
 30
0.0
 70
   128
 71
    27
 72
    28
 73
   -29
 74
   -27
  0
VERTEX
  5
120
330
C2
100
AcDbEntity
  8
0
 62
   183
420
  9197793
100
AcDbFaceRecord
 10
0.0
 20
0.0
 30
0.0
 70
   128
 71
   -27
 72
    29
 73
   -30
 74
   -27
  0
VERTEX
  5
121
330
C2
100
AcDbEntity
  8
0
 62
   183
420
  9197793
100
AcDbFaceRecord
 10
0.0
 20
0.0
 30
0.0
 70
   128
 71
   -27
 72
    30
 73
   -31
 74
   -27
  0
VERTEX
  5
122
330
C2
100
AcDbEntity
  8
0
 62
   183
420
  9197793
100
AcDbFaceRecord
 10
0.0
 20
0.0
 30
0.0
 70
   128
 71
   -27
 72
    31
 73
   -32
 74
   -27
  0
VERTEX
  5
123
330
C2
100
AcDbEntity
  8
0
 62
   183
420
  9197793
100
AcDbFaceRecord
 10
0.0
 20
0.0
 30
0.0
 70
   128
 71
   -27
 72
    32
 73
   -33
 74
   -27
  0
VERTEX
  5
124
330
C2
100
AcDbEntity
  8
0
 62
   183
420
  9197793
100
AcDbFaceRecord
 10
0.0
 20
0.0
 30
0.0
 70
   128
 71
   -27
 72
    33
 73
   -34
 74
   -27
  0
VERTEX
  5
125
330
C2
100
AcDbEntity
  8
0
 62
   183
420
  9197793
100
AcDbFaceRecord
 10
0.0
 20
0.0
 30
0.0
 70
   128
 71
   -27
 72
    34
 73
   -35
 74
   -27
  0
VERTEX
  5
126
330
C2
100
AcDbEntity
  8
0
 62
   183
420
  9197793
100
AcDbFaceRecord
 10
0.0
 20
0.0
 30
0.0
 70
   128
 71
   -27
 72
    35
 73
    36
 74
   -27
  0
SEQEND
  5
127
330
C2
100
AcDbEntity
  8
0
 62
   183
420
  9197793
  0
ENDSEC
  0
SECTION
  2
OBJECTS
  0
DICTIONARY
  5
C
330
0
100
AcDbDictionary
281
     1
  3
ACAD_COLOR
350
BF
  3
ACAD_GROUP
350
D
  3
ACAD_LAYOUT
350
1A
  3
ACAD_MATERIAL
350
AA
  3
ACAD_MLINESTYLE
350
17
  3
ACAD_PLOTSETTINGS
350
19
  3
ACAD_PLOTSTYLENAME
350
E
  3
ACAD_TABLESTYLE
350
C0
  3
ACAD_VISUALSTYLE
350
AE
  3
AcDbVariableDictionary
350
128
  0
DICTIONARY
  5
BF
102
{ACAD_REACTORS
330
C
102
}
330
C
100
AcDbDictionary
281
     1
  0
DICTIONARY
  5
D
102
{ACAD_REACTORS
330
C
102
}
330
C
100
AcDbDictionary
281
     1
  0
DICTIONARY
  5
1A
102
{ACAD_REACTORS
330
C
102
}
330
C
100
AcDbDictionary
281
     1
  3
Layout1
350
1E
  3
Layout2
350
26
  3
Model
350
22
  0
DICTIONARY
  5
AA
102
{ACAD_REACTORS
330
C
102
}
330
C
100
AcDbDictionary
281
     1
  3
ByBlock
350
AC
  3
ByLayer
350
AB
  3
Global
350
AD
  0
DICTIONARY
  5
17
102
{ACAD_REACTORS
330
C
102
}
330
C
100
AcDbDictionary
281
     1
  3
Standard
350
18
  0
DICTIONARY
  5
19
102
{ACAD_REACTORS
330
C
102
}
330
C
100
AcDbDictionary
281
     1
  0
ACDBDICTIONARYWDFLT
  5
E
102
{ACAD_REACTORS
330
C
102
}
330
C
100
AcDbDictionary
281
     1
  3
ByLayer
350
2D
  3
Normal
350
F
100
AcDbDictionaryWithDefault
340
F
  0
DICTIONARY
  5
C0
102
{ACAD_REACTORS
330
C
102
}
330
C
100
AcDbDictionary
281
     1
  3
Standard
350
C1
  0
DICTIONARY
  5
AE
102
{ACAD_REACTORS
330
C
102
}
330
C
100
AcDbDictionary
281
     1
  3
2dWireframe
350
B4
  3
3D Hidden
350
B6
  3
3dWireframe
350
B5
  3
Basic
350
B3
  3
Brighten
350
BA
  3
ColorChange
350
BE
  3
Conceptual
350
B7
  3
Dim
350
B9
  3
Facepattern
350
BD
  3
Flat
350
AF
  3
FlatWithEdges
350
B0
  3
Gouraud
350
B1
  3
GouraudWithEdges
350
B2
  3
Linepattern
350
BC
  3
Realistic
350
B8
  3
Thicken
350
BB
  0
DICTIONARY
  5
128
102
{ACAD_REACTORS
330
C
102
}
330
C
100
AcDbDictionary
281
     1
  3
CTABLESTYLE
350
129
  0
LAYOUT
  5
1E
102
{ACAD_REACTORS
330
1A
102
}
330
1A
100
AcDbPlotSettings
  1

  2
\\KTXNTBDC\CASF2PN1
  4

  6

 40
0.0
 41
0.0
 42
0.0
 43
0.0
 44
0.0
 45
0.0
 46
0.0
 47
0.0
 48
0.0
 49
0.0
140
0.0
141
0.0
142
1.0
143
1.0
 70
   688
 72
     0
 73
     0
 74
     5
  7

 75
    16
147
1.0
 76
     0
 77
     2
 78
   300
148
0.0
149
0.0
100
AcDbLayout
  1
Layout1
 70
     1
 71
     1
 10
0.0
 20
0.0
 11
12.0
 21
9.0
 12
0.0
 22
0.0
 32
0.0
 14
1.000000000000000E+20
 24
1.000000000000000E+20
 34
1.000000000000000E+20
 15
-1.000000000000000E+20
 25
-1.000000000000000E+20
 35
-1.000000000000000E+20
146
0.0
 13
0.0
 23
0.0
 33
0.0
 16
1.0
 26
0.0
 36
0.0
 17
0.0
 27
1.0
 37
0.0
 76
     0
330
1B
  0
LAYOUT
  5
26
102
{ACAD_REACTORS
330
1A
102
}
330
1A
100
AcDbPlotSettings
  1

  2
\\KTXNTBDC\CASF2PN1
  4

  6

 40
0.0
 41
0.0
 42
0.0
 43
0.0
 44
0.0
 45
0.0
 46
0.0
 47
0.0
 48
0.0
 49
0.0
140
0.0
141
0.0
142
1.0
143
1.0
 70
   688
 72
     0
 73
     0
 74
     5
  7

 75
    16
147
1.0
 76
     0
 77
     2
 78
   300
148
0.0
149
0.0
100
AcDbLayout
  1
Layout2
 70
     1
 71
     2
 10
0.0
 20
0.0
 11
12.0
 21
9.0
 12
0.0
 22
0.0
 32
0.0
 14
0.0
 24
0.0
 34
0.0
 15
0.0
 25
0.0
 35
0.0
146
0.0
 13
0.0
 23
0.0
 33
0.0
 16
1.0
 26
0.0
 36
0.0
 17
0.0
 27
1.0
 37
0.0
 76
     0
330
23
  0
LAYOUT
  5
22
102
{ACAD_REACTORS
330
1A
102
}
330
1A
100
AcDbPlotSettings
  1

  2
\\KTXNTBDC\CASF2PN1
  4

  6

 40
0.0
 41
0.0
 42
0.0
 43
0.0
 44
0.0
 45
0.0
 46
0.0
 47
0.0
 48
0.0
 49
0.0
140
0.0
141
0.0
142
1.0
143
1.0
 70
  1712
 72
     0
 73
     0
 74
     0
  7

 75
     0
147
1.0
 76
     0
 77
     2
 78
   300
148
0.0
149
0.0
100
AcDbLayout
  1
Model
 70
     1
 71
     0
 10
0.0
 20
0.0
 11
12.0
 21
9.0
 12
0.0
 22
0.0
 32
0.0
 14
0.0
 24
0.0
 34
0.0
 15
0.0
 25
0.0
 35
0.0
146
0.0
 13
0.0
 23
0.0
 33
0.0
 16
1.0
 26
0.0
 36
0.0
 17
0.0
 27
1.0
 37
0.0
 76
     0
330
1F
  0
MATERIAL
  5
AC
102
{ACAD_REACTORS
330
AA
102
}
330
AA
100
AcDbMaterial
  1
ByBlock
  0
MATERIAL
  5
AB
102
{ACAD_REACTORS
330
AA
102
}
330
AA
100
AcDbMaterial
  1
ByLayer
  0
MATERIAL
  5
AD
102
{ACAD_REACTORS
330
AA
102
}
330
AA
100
AcDbMaterial
  1
Global
  0
MLINESTYLE
  5
18
102
{ACAD_REACTORS
330
17
102
}
330
17
100
AcDbMlineStyle
  2
STANDARD
 70
     0
  3

 62
   256
 51
90.0
 52
90.0
 71
     2
 49
0.5
 62
   256
  6
BYLAYER
 49
-0.5
 62
   256
  6
BYLAYER
  0
ACDBPLACEHOLDER
  5
2D
102
{ACAD_REACTORS
330
E
102
}
330
E
  0
ACDBPLACEHOLDER
  5
F
102
{ACAD_REACTORS
330
E
102
}
330
E
  0
TABLESTYLE
  5
C1
102
{ACAD_REACTORS
330
C0
102
}
330
C0
100
AcDbTableStyle
  3
Standard
 70
     0
 71
     0
 40
0.06
 41
0.06
280
     0
281
     0
  7
Standard
140
0.18
170
     2
 62
     0
 63
     7
283
     0
 90
      512
 91
        0
  1

274
    -2
284
     1
 64
     0
275
    -2
285
     1
 65
     0
276
    -2
286
     1
 66
     0
277
    -2
287
     1
 67
     0
278
    -2
288
     1
 68
     0
279
    -2
289
     1
 69
     0
  7
Standard
140
0.25
170
     5
 62
     0
 63
     7
283
     0
 90
      512
 91
        0
  1

274
    -2
284
     1
 64
     0
275
    -2
285
     1
 65
     0
276
    -2
286
     1
 66
     0
277
    -2
287
     1
 67
     0
278
    -2
288
     1
 68
     0
279
    -2
289
     1
 69
     0
  7
Standard
140
0.18
170
     5
 62
     0
 63
     7
283
     0
 90
      512
 91
        0
  1

274
    -2
284
     1
 64
     0
275
    -2
285
     1
 65
     0
276
    -2
286
     1
 66
     0
277
    -2
287
     1
 67
     0
278
    -2
288
     1
 68
     0
279
    -2
289
     1
 69
     0
  0
VISUALSTYLE
  5
B4
102
{ACAD_REACTORS
330
AE
102
}
330
AE
100
AcDbVisualStyle
  2
2dWireframe
 70
     4
 71
     0
 72
     2
 73
     0
 90
        0
 40
-0.6
 41
-30.0
 62
     5
 63
     7
421
 16777215
 74
     1
 91
        4
 64
     7
 65
   257
 75
     1
175
     1
 42
1.0
 92
        0
 66
   257
 43
1.0
 76
     1
 77
     6
 78
     2
 67
     7
 79
     5
170
     0
171
     0
290
     0
174
     0
 93
        1
 44
0.0
173
     0
291
     0
 45
0.0
  0
VISUALSTYLE
  5
B6
102
{ACAD_REACTORS
330
AE
102
}
330
AE
100
AcDbVisualStyle
  2
3D Hidden
 70
     6
 71
     1
 72
     2
 73
     2
 90
        0
 40
-0.6
 41
-30.0
 62
     5
 63
     7
421
 16777215
 74
     2
 91
        2
 64
     7
 65
   257
 75
     2
175
     1
 42
40.0
 92
        0
 66
   257
 43
1.0
 76
     1
 77
     6
 78
     2
 67
     7
 79
     3
170
     0
171
     0
290
     0
174
     0
 93
        1
 44
0.0
173
     0
291
     0
 45
0.0
  0
VISUALSTYLE
  5
B5
102
{ACAD_REACTORS
330
AE
102
}
330
AE
100
AcDbVisualStyle
  2
3dWireframe
 70
     5
 71
     0
 72
     2
 73
     0
 90
        0
 40
-0.6
 41
-30.0
 62
     5
 63
     7
421
 16777215
 74
     1
 91
        4
 64
     7
 65
   257
 75
     1
175
     1
 42
1.0
 92
        0
 66
   257
 43
1.0
 76
     1
 77
     6
 78
     2
 67
     7
 79
     5
170
     0
171
     0
290
     0
174
     0
 93
        1
 44
0.0
173
     0
291
     0
 45
0.0
  0
VISUALSTYLE
  5
B3
102
{ACAD_REACTORS
330
AE
102
}
330
AE
100
AcDbVisualStyle
  2
Basic
 70
     7
 71
     1
 72
     0
 73
     1
 90
        0
 40
-0.6
 41
-30.0
 62
     5
 63
     7
421
 16777215
 74
     0
 91
        4
 64
     7
 65
   257
 75
     1
175
     1
 42
1.0
 92
        8
 66
     7
 43
1.0
 76
     1
 77
     6
 78
     2
 67
     7
 79
     5
170
     0
171
     0
290
     0
174
     0
 93
        1
 44
0.0
173
     0
291
     1
 45
0.0
  0
VISUALSTYLE
  5
BA
102
{ACAD_REACTORS
330
AE
102
}
330
AE
100
AcDbVisualStyle
  2
Brighten
 70
    12
 71
     2
 72
     2
 73
     0
 90
        0
 40
-0.6
 41
-30.0
 62
     5
 63
     7
421
 16777215
 74
     1
 91
        4
 64
     7
 65
   257
 75
     1
175
     1
 42
1.0
 92
        8
 66
     7
 43
1.0
 76
     1
 77
     6
 78
     2
 67
     7
 79
     5
170
     0
171
     0
290
     0
174
     0
 93
        1
 44
50.0
173
     0
291
     1
 45
0.0
  0
VISUALSTYLE
  5
BE
102
{ACAD_REACTORS
330
AE
102
}
330
AE
100
AcDbVisualStyle
  2
ColorChange
 70
    16
 71
     2
 72
     2
 73
     3
 90
        0
 40
-0.6
 41
-30.0
 62
     5
 63
     8
421
  8421504
 74
     1
 91
        4
 64
     7
 65
   257
 75
     1
175
     1
 42
1.0
 92
        8
 66
     8
424
  8421504
 43
1.0
 76
     1
 77
     6
 78
     2
 67
     7
 79
     5
170
     0
171
     0
290
     0
174
     0
 93
        1
 44
0.0
173
     0
291
     1
 45
0.0
  0
VISUALSTYLE
  5
B7
102
{ACAD_REACTORS
330
AE
102
}
330
AE
100
AcDbVisualStyle
  2
Conceptual
 70
     9
 71
     3
 72
     2
 73
     0
 90
        0
 40
-0.6
 41
-30.0
 62
     5
 63
     7
421
 16777215
 74
     2
 91
        2
 64
     7
 65
   257
 75
     1
175
     1
 42
40.0
 92
        8
 66
     7
 43
1.0
 76
     1
 77
     6
 78
     2
 67
     7
 79
     3
170
     0
171
     0
290
     0
174
     0
 93
        1
 44
0.0
173
     0
291
     0
 45
0.0
  0
VISUALSTYLE
  5
B9
102
{ACAD_REACTORS
330
AE
102
}
330
AE
100
AcDbVisualStyle
  2
Dim
 70
    11
 71
     2
 72
     2
 73
     0
 90
        0
 40
-0.6
 41
-30.0
 62
     5
 63
     7
421
 16777215
 74
     1
 91
        4
 64
     7
 65
   257
 75
     1
175
     1
 42
1.0
 92
        8
 66
     7
 43
1.0
 76
     1
 77
     6
 78
     2
 67
     7
 79
     5
170
     0
171
     0
290
     0
174
     0
 93
        1
 44
-50.0
173
     0
291
     1
 45
0.0
  0
VISUALSTYLE
  5
BD
102
{ACAD_REACTORS
330
AE
102
}
330
AE
100
AcDbVisualStyle
  2
Facepattern
 70
    15
 71
     2
 72
     2
 73
     0
 90
        0
 40
-0.6
 41
-30.0
 62
     5
 63
     7
421
 16777215
 74
     1
 91
        4
 64
     7
 65
   257
 75
     1
175
     1
 42
1.0
 92
        8
 66
     7
 43
1.0
 76
     1
 77
     6
 78
     2
 67
     7
 79
     5
170
     0
171
     0
290
     0
174
     0
 93
        1
 44
0.0
173
     0
291
     1
 45
0.0
  0
VISUALSTYLE
  5
AF
102
{ACAD_REACTORS
330
AE
102
}
330
AE
100
AcDbVisualStyle
  2
Flat
 70
     0
 71
     2
 72
     1
 73
     1
 90
        2
 40
-0.6
 41
30.0
 62
     5
 63
     7
421
 16777215
 74
     0
 91
        4
 64
     7
 65
   257
 75
     1
175
     1
 42
1.0
 92
        8
 66
     7
 43
1.0
 76
     1
 77
     6
 78
     2
 67
     7
 79
     5
170
     0
171
     0
290
     0
174
     0
 93
       13
 44
0.0
173
     0
291
     1
 45
0.0
  0
VISUALSTYLE
  5
B0
102
{ACAD_REACTORS
330
AE
102
}
330
AE
100
AcDbVisualStyle
  2
FlatWithEdges
 70
     1
 71
     2
 72
     1
 73
     1
 90
        2
 40
-0.6
 41
30.0
 62
     5
 63
     7
421
 16777215
 74
     1
 91
        4
 64
     7
 65
   257
 75
     1
175
     1
 42
1.0
 92
        0
 66
   257
 43
1.0
 76
     1
 77
     6
 78
     2
 67
     7
 79
     5
170
     0
171
     0
290
     0
174
     0
 93
       13
 44
0.0
173
     0
291
     1
 45
0.0
  0
VISUALSTYLE
  5
B1
102
{ACAD_REACTORS
330
AE
102
}
330
AE
100
AcDbVisualStyle
  2
Gouraud
 70
     2
 71
     2
 72
     2
 73
     1
 90
        2
 40
-0.6
 41
30.0
 62
     5
 63
     7
421
 16777215
 74
     0
 91
        4
 64
     7
 65
   257
 75
     1
175
     1
 42
1.0
 92
        0
 66
     7
 43
1.0
 76
     1
 77
     6
 78
     2
 67
     7
 79
     5
170
     0
171
     0
290
     0
174
     0
 93
       13
 44
0.0
173
     0
291
     1
 45
0.0
  0
VISUALSTYLE
  5
B2
102
{ACAD_REACTORS
330
AE
102
}
330
AE
100
AcDbVisualStyle
  2
GouraudWithEdges
 70
     3
 71
     2
 72
     2
 73
     1
 90
        2
 40
-0.6
 41
30.0
 62
     5
 63
     7
421
 16777215
 74
     1
 91
        4
 64
     7
 65
   257
 75
     1
175
     1
 42
1.0
 92
        0
 66
   257
 43
1.0
 76
     1
 77
     6
 78
     2
 67
     7
 79
     5
170
     0
171
     0
290
     0
174
     0
 93
       13
 44
0.0
173
     0
291
     1
 45
0.0
  0
VISUALSTYLE
  5
BC
102
{ACAD_REACTORS
330
AE
102
}
330
AE
100
AcDbVisualStyle
  2
Linepattern
 70
    14
 71
     2
 72
     2
 73
     0
 90
        0
 40
-0.6
 41
-30.0
 62
     5
 63
     7
421
 16777215
 74
     1
 91
        4
 64
     7
 65
   257
 75
     7
175
     7
 42
1.0
 92
        8
 66
     7
 43
1.0
 76
     1
 77
     6
 78
     2
 67
     7
 79
     5
170
     0
171
     0
290
     0
174
     0
 93
        1
 44
0.0
173
     0
291
     1
 45
0.0
  0
VISUALSTYLE
  5
B8
102
{ACAD_REACTORS
330
AE
102
}
330
AE
100
AcDbVisualStyle
  2
Realistic
 70
     8
 71
     2
 72
     2
 73
     0
 90
        0
 40
-0.6
 41
-30.0
 62
     5
 63
     7
421
 16777215
 74
     1
 91
        0
 64
     7
 65
   257
 75
     1
175
     1
 42
1.0
 92
        8
 66
     8
424
  7895160
 43
1.0
 76
     1
 77
     6
 78
     2
 67
     7
 79
     5
170
     0
171
     0
290
     0
174
     0
 93
       13
 44
0.0
173
     0
291
     0
 45
0.0
  0
VISUALSTYLE
  5
BB
102
{ACAD_REACTORS
330
AE
102
}
330
AE
100
AcDbVisualStyle
  2
Thicken
 70
    13
 71
     2
 72
     2
 73
     0
 90
        0
 40
-0.6
 41
-30.0
 62
     5
 63
     7
421
 16777215
 74
     1
 91
        4
 64
     7
 65
   257
 75
     1
175
     1
 42
1.0
 92
       12
 66
     7
 43
1.0
 76
     1
 77
     6
 78
     2
 67
     7
 79
     5
170
     0
171
     0
290
     0
174
     0
 93
        1
 44
0.0
173
     0
291
     1
 45
0.0
  0
DICTIONARYVAR
  5
129
102
{ACAD_REACTORS
330
128
102
}
330
128
100
DictionaryVariables
280
     0
  1
STANDARD
  0
ENDSEC
  0
EOF
